<?xml version="1.0" encoding="UTF-8"?>
<svg version="1.1" xmlns="http://www.w3.org/2000/svg" width="506" height="163">
<path d="M0 0 C6.7134375 0.0928125 6.7134375 0.0928125 13.5625 0.1875 C13.5625 12.7275 13.5625 25.2675 13.5625 38.1875 C15.2125 38.8475 16.8625 39.5075 18.5625 40.1875 C18.8925 41.1775 19.2225 42.1675 19.5625 43.1875 C20.5525 43.5175 21.5425 43.8475 22.5625 44.1875 C25.42450199 48.51400468 25.07674829 53.19407456 24.5625 58.1875 C23.7750521 61.01867107 22.76113212 63.49057774 21.5625 66.1875 C20.9025 66.1875 20.2425 66.1875 19.5625 66.1875 C19.48 66.909375 19.3975 67.63125 19.3125 68.375 C18.5625 71.1875 18.5625 71.1875 16.55078125 73.21484375 C13.64760739 77.55534534 14.01433271 81.45180324 14 86.5625 C13.74681319 97.47476137 12.92966989 108.03524791 8.5625 118.1875 C7.9025 118.1875 7.2425 118.1875 6.5625 118.1875 C6.47484375 119.0640625 6.3871875 119.940625 6.296875 120.84375 C5.46459089 124.6332989 4.15650823 126.62090277 1.8125 129.6875 C1.09320313 130.63238281 0.37390625 131.57726562 -0.3671875 132.55078125 C-1.39199219 133.85595703 -1.39199219 133.85595703 -2.4375 135.1875 C-2.95570313 135.86167969 -3.47390625 136.53585938 -4.0078125 137.23046875 C-5.09266164 138.59789836 -6.25645227 139.90224218 -7.4375 141.1875 C-8.0975 141.1875 -8.7575 141.1875 -9.4375 141.1875 C-9.4375 141.8475 -9.4375 142.5075 -9.4375 143.1875 C-11.1171875 144.6953125 -11.1171875 144.6953125 -13.3125 146.3125 C-14.03179687 146.85132813 -14.75109375 147.39015625 -15.4921875 147.9453125 C-17.4375 149.1875 -17.4375 149.1875 -19.4375 149.1875 C-19.4375 149.8475 -19.4375 150.5075 -19.4375 151.1875 C-21.0875 151.5175 -22.7375 151.8475 -24.4375 152.1875 C-24.4375 152.8475 -24.4375 153.5075 -24.4375 154.1875 C-44.08989492 163.29183288 -63.32366535 166.33375956 -84.4375 160.1875 C-85.0975 159.8575 -85.7575 159.5275 -86.4375 159.1875 C-86.80416667 153.6875 -86.80416667 153.6875 -85.0625 151.3125 C-83.4375 150.1875 -83.4375 150.1875 -81.4375 150.1875 C-81.1075 149.1975 -80.7775 148.2075 -80.4375 147.1875 C-78 144.5 -78 144.5 -75.4375 142.1875 C-74.7775 142.1875 -74.1175 142.1875 -73.4375 142.1875 C-73.210625 141.506875 -72.98375 140.82625 -72.75 140.125 C-71.33985523 136.96896171 -69.58104855 134.54428745 -67.4609375 131.8359375 C-66.17376846 130.08609463 -66.17376846 130.08609463 -66.4375 127.1875 C-68.00217003 127.78602427 -69.56414086 128.39160673 -71.125 129 C-71.99511719 129.33644531 -72.86523438 129.67289063 -73.76171875 130.01953125 C-78.82319075 132.2288453 -82.32670805 134.87034924 -86.125 138.875 C-87.52437707 140.34963769 -88.95412786 141.79738505 -90.4375 143.1875 C-91.0975 143.1875 -91.7575 143.1875 -92.4375 143.1875 C-92.7675 144.1775 -93.0975 145.1675 -93.4375 146.1875 C-95.5 146.875 -95.5 146.875 -97.4375 147.1875 C-97.4375 147.8475 -97.4375 148.5075 -97.4375 149.1875 C-100.55521927 150.79089848 -101.82761689 151.37724141 -105.25 150.3125 C-105.971875 149.94125 -106.69375 149.57 -107.4375 149.1875 C-107.4375 148.5275 -107.4375 147.8675 -107.4375 147.1875 C-108.159375 146.94 -108.88125 146.6925 -109.625 146.4375 C-112.71356582 145.06480408 -114.94761418 143.46396704 -117.4375 141.1875 C-117.4375 140.5275 -117.4375 139.8675 -117.4375 139.1875 C-118.0975 139.1875 -118.7575 139.1875 -119.4375 139.1875 C-119.9325 138.1975 -119.9325 138.1975 -120.4375 137.1875 C-123.90393981 136.1484755 -127.40299126 135.32338128 -130.921875 134.48046875 C-136.02006905 132.60546627 -138.47724876 129.62787686 -141.4375 125.1875 C-141.73828125 122.296875 -141.73828125 122.296875 -141.75 118.9375 C-141.76675781 117.83921875 -141.78351563 116.7409375 -141.80078125 115.609375 C-141.4375 112.1875 -141.4375 112.1875 -139.89453125 109.16796875 C-137.22678489 103.4555549 -138.45631564 96.8634941 -138.8125 90.75 C-138.937915 88.05771731 -139.04790937 85.36489299 -139.15625 82.671875 C-139.20910156 81.38216797 -139.26195312 80.09246094 -139.31640625 78.76367188 C-139.46652156 74.33042785 -139.50663507 69.93132065 -139.3125 65.5 C-139.26867187 64.32050781 -139.22484375 63.14101563 -139.1796875 61.92578125 C-138.4375 59.1875 -138.4375 59.1875 -136.05859375 57.3046875 C-133.27887164 56.11988791 -131.42492003 55.93143543 -128.4375 56.1875 C-128.4375 55.5275 -128.4375 54.8675 -128.4375 54.1875 C-127.61507812 53.94515625 -126.79265625 53.7028125 -125.9453125 53.453125 C-119.93801659 51.64954886 -114.08830951 49.72394708 -108.296875 47.3203125 C-103.81274811 45.54381414 -99.25231041 43.98765649 -94.69433594 42.41210938 C-90.69831049 41.02141427 -86.81204742 39.51972246 -82.9375 37.8125 C-78.5959758 36.03574609 -74.08502762 35.07569921 -69.4375 36.1875 C-67.08630601 39.71429099 -67.22306548 41.21629485 -67.3125 45.375 C-67.33054687 46.46167969 -67.34859375 47.54835937 -67.3671875 48.66796875 C-67.39039062 49.49941406 -67.41359375 50.33085938 -67.4375 51.1875 C-64.4675 50.1975 -61.4975 49.2075 -58.4375 48.1875 C-58.43339111 47.33518799 -58.42928223 46.48287598 -58.42504883 45.60473633 C-58.3979958 42.42654652 -58.3488357 39.24966708 -58.28491211 36.07202148 C-58.26179022 34.69974569 -58.24734997 33.32729391 -58.24194336 31.95483398 C-58.23261335 29.97615529 -58.18892981 27.99773376 -58.14453125 26.01953125 C-58.1288208 24.83077393 -58.11311035 23.6420166 -58.09692383 22.41723633 C-57.24977116 18.26803874 -55.69005578 16.82243729 -52.4375 14.1875 C-50.42382813 13.04077148 -50.42382813 13.04077148 -48.46875 12.30859375 C-47.73889893 12.02918945 -47.00904785 11.74978516 -46.25708008 11.46191406 C-45.49161865 11.18573242 -44.72615723 10.90955078 -43.9375 10.625 C-42.745802 10.17785645 -42.745802 10.17785645 -41.5300293 9.72167969 C-35.86073828 7.62316858 -30.14824839 5.76002833 -24.33203125 4.109375 C-21.34877222 3.25775269 -21.34877222 3.25775269 -18.4765625 1.58984375 C-12.72589042 -0.940231 -6.14276371 -0.12000213 0 0 Z M-65.62890625 66.03369141 C-69.74290988 70.93295437 -68.82729417 78.75152841 -68.9375 84.875 C-68.99388772 86.40573221 -69.05375228 87.93634052 -69.1171875 89.46679688 C-69.40932139 97.03864947 -69.49793633 104.61029472 -69.4375 112.1875 C-67.79043447 111.54481563 -66.14487825 110.89826198 -64.5 110.25 C-63.58347656 109.89035156 -62.66695313 109.53070313 -61.72265625 109.16015625 C-59.51331467 108.3878782 -59.51331467 108.3878782 -58.4375 107.1875 C-57.46084739 101.8971198 -57.30400873 96.7785226 -57.33984375 91.41015625 C-57.3412587 90.59880722 -57.34267365 89.78745819 -57.34413147 88.95152283 C-57.34968643 86.38430953 -57.36223033 83.81718652 -57.375 81.25 C-57.38002083 79.49935023 -57.38458271 77.74869907 -57.38867188 75.99804688 C-57.39964107 71.7278303 -57.41687418 67.45768041 -57.4375 63.1875 C-60.70264241 63.1875 -62.90297429 64.2806904 -65.62890625 66.03369141 Z " fill="#47BA5A" transform="translate(145.4375,-0.1875)"/>
<path d="M0 0 C1.30388672 0.01353516 2.60777344 0.02707031 3.95117188 0.04101562 C7.15537622 0.07622666 10.35872105 0.12547906 13.5625 0.1875 C13.58743457 5.6826953 13.60546987 11.17785682 13.61743164 16.6730957 C13.6224245 18.5380104 13.62922112 20.40292126 13.63793945 22.26782227 C13.76490254 50.14742334 13.76490254 50.14742334 8.5625 58.1875 C8.30726563 59.13109375 8.05203125 60.0746875 7.7890625 61.046875 C6.27946479 64.91221435 3.96350475 67.01190353 0.875 69.625 C-0.21733023 70.58328703 -1.30848188 71.5429192 -2.3984375 72.50390625 C-2.92405273 72.96297363 -3.44966797 73.42204102 -3.99121094 73.89501953 C-5.82999698 75.53825607 -7.5440869 77.2825861 -9.25 79.0625 C-12.3963628 82.25501972 -15.6478336 84.7825194 -19.4375 87.1875 C-20.4275 87.1875 -21.4175 87.1875 -22.4375 87.1875 C-22.4375 87.8475 -22.4375 88.5075 -22.4375 89.1875 C-23.159375 89.249375 -23.88125 89.31125 -24.625 89.375 C-27.6727486 90.01012004 -27.6727486 90.01012004 -30 92.75 C-30.804375 93.554375 -31.60875 94.35875 -32.4375 95.1875 C-33.7575 95.1875 -35.0775 95.1875 -36.4375 95.1875 C-36.4375 96.1775 -36.4375 97.1675 -36.4375 98.1875 C-38.78480788 99.51371385 -41.13914258 100.82330199 -43.5 102.125 C-44.48516602 102.68477539 -44.48516602 102.68477539 -45.49023438 103.25585938 C-46.14443359 103.61357422 -46.79863281 103.97128906 -47.47265625 104.33984375 C-48.0644165 104.66976318 -48.65617676 104.99968262 -49.26586914 105.33959961 C-52.26281077 106.50973769 -55.25523905 106.81124739 -58.4375 107.1875 C-58.32019799 100.79697614 -58.19536229 94.40663192 -58.06518555 88.01635742 C-58.02176493 85.84061047 -57.98009529 83.66482786 -57.94018555 81.48901367 C-57.88265498 78.36886832 -57.81891177 75.24890367 -57.75390625 72.12890625 C-57.73719376 71.14974747 -57.72048126 70.17058868 -57.70326233 69.16175842 C-57.68331711 68.26090012 -57.66337189 67.36004181 -57.64282227 66.43188477 C-57.62727798 65.63468521 -57.6117337 64.83748566 -57.59571838 64.01612854 C-57.4375 62.1875 -57.4375 62.1875 -56.4375 61.1875 C-56.20268307 59.00457226 -56.02386677 56.81546826 -55.875 54.625 C-55.79121094 53.42746094 -55.70742187 52.22992188 -55.62109375 50.99609375 C-55.56050781 50.06925781 -55.49992187 49.14242187 -55.4375 48.1875 C-56.0975 48.1875 -56.7575 48.1875 -57.4375 48.1875 C-57.56156007 44.14924934 -57.65205045 40.11174362 -57.7121582 36.07202148 C-57.73722617 34.69942898 -57.77129082 33.32696898 -57.81469727 31.95483398 C-57.87567531 29.97699304 -57.90111009 27.99815816 -57.92578125 26.01953125 C-57.95196533 24.83077393 -57.97814941 23.6420166 -58.00512695 22.41723633 C-57.26702818 18.21753369 -55.71454709 16.82892184 -52.4375 14.1875 C-50.42382812 13.04077148 -50.42382812 13.04077148 -48.46875 12.30859375 C-47.73889893 12.02918945 -47.00904785 11.74978516 -46.25708008 11.46191406 C-45.10888794 11.0476416 -45.10888794 11.0476416 -43.9375 10.625 C-43.14303467 10.3269043 -42.34856934 10.02880859 -41.5300293 9.72167969 C-35.86073828 7.62316858 -30.14824839 5.76002833 -24.33203125 4.109375 C-21.34877222 3.25775269 -21.34877222 3.25775269 -18.4765625 1.58984375 C-12.72267019 -0.94164778 -6.14644259 -0.12100518 0 0 Z " fill="#237AC4" transform="translate(145.4375,-0.1875)"/>
<path d="M0 0 C0.37713653 13.75849934 0.54111829 27.11087703 -5 40 C-5.66 40 -6.32 40 -7 40 C-7.08765625 40.8765625 -7.1753125 41.753125 -7.265625 42.65625 C-8.09790911 46.4457989 -9.40599177 48.43340277 -11.75 51.5 C-12.82894531 52.91732422 -12.82894531 52.91732422 -13.9296875 54.36328125 C-14.61289063 55.23339844 -15.29609375 56.10351562 -16 57 C-16.51820313 57.67417969 -17.03640625 58.34835938 -17.5703125 59.04296875 C-18.65516164 60.41039836 -19.81895227 61.71474218 -21 63 C-21.66 63 -22.32 63 -23 63 C-23 63.66 -23 64.32 -23 65 C-24.6796875 66.5078125 -24.6796875 66.5078125 -26.875 68.125 C-27.59429687 68.66382813 -28.31359375 69.20265625 -29.0546875 69.7578125 C-31 71 -31 71 -33 71 C-33 71.66 -33 72.32 -33 73 C-34.65 73.33 -36.3 73.66 -38 74 C-38 74.66 -38 75.32 -38 76 C-57.65239492 85.10433288 -76.88616535 88.14625956 -98 82 C-98.66 81.67 -99.32 81.34 -100 81 C-100.36666667 75.5 -100.36666667 75.5 -98.625 73.125 C-97 72 -97 72 -95 72 C-94.67 71.01 -94.34 70.02 -94 69 C-91.5625 66.3125 -91.5625 66.3125 -89 64 C-88.34 64 -87.68 64 -87 64 C-86.773125 63.319375 -86.54625 62.63875 -86.3125 61.9375 C-84.93889522 58.86324169 -83.26802485 56.49281261 -81.21875 53.84375 C-79.86673487 51.99695604 -79.86673487 51.99695604 -79.28515625 49.53515625 C-77.4335502 45.882596 -74.47514786 44.66546853 -70.9375 42.9375 C-70.26444824 42.59315918 -69.59139648 42.24881836 -68.89794922 41.89404297 C-65.19107667 40.0161433 -61.44111095 38.27104463 -57.625 36.625 C-53.95602515 35.43974847 -53.95602515 35.43974847 -53 33 C-51.07421875 32.1484375 -51.07421875 32.1484375 -48.6875 31.375 C-47.51767578 30.98441406 -47.51767578 30.98441406 -46.32421875 30.5859375 C-44 30 -44 30 -40 30 C-40 29.34 -40 28.68 -40 28 C-39.22914062 27.59007813 -38.45828125 27.18015625 -37.6640625 26.7578125 C-36.66117188 26.21898438 -35.65828125 25.68015625 -34.625 25.125 C-33.62726563 24.59132813 -32.62953125 24.05765625 -31.6015625 23.5078125 C-28.94651605 22.1179862 -28.94651605 22.1179862 -27 20 C-26.21834473 19.70351562 -25.43668945 19.40703125 -24.63134766 19.1015625 C-21.74968093 17.89520879 -20.13124728 16.54145665 -17.8984375 14.375 C-17.16109375 13.66859375 -16.42375 12.9621875 -15.6640625 12.234375 C-14.90867187 11.49703125 -14.15328125 10.7596875 -13.375 10 C-11.86376295 8.53981825 -10.35081302 7.08140664 -8.8359375 5.625 C-8.17126465 4.97789063 -7.5065918 4.33078125 -6.82177734 3.6640625 C-2.81044601 0 -2.81044601 0 0 0 Z " fill="#247AC1" transform="translate(159,78)"/>
<path d="M0 0 C7.59 0 15.18 0 23 0 C24.53266582 3.06533164 24.10276471 6.26754272 24.0625 9.625 C24.05798828 10.33140625 24.05347656 11.0378125 24.04882812 11.765625 C24.03703875 13.51045275 24.01910324 15.255237 24 17 C24.9286084 16.99476318 25.8572168 16.98952637 26.81396484 16.98413086 C30.25423805 16.96710407 33.69446659 16.95455727 37.13476562 16.94506836 C38.62468166 16.94003486 40.11459274 16.93320758 41.60449219 16.92456055 C43.74415304 16.91245195 45.88374868 16.90676193 48.0234375 16.90234375 C49.31169434 16.89710693 50.59995117 16.89187012 51.92724609 16.88647461 C55 17 55 17 57 18 C57 23.61 57 29.22 57 35 C46.11 35 35.22 35 24 35 C24.04640625 38.3 24.0928125 41.6 24.140625 45 C24.17186434 48.2136888 24.19612726 51.42736036 24.21972656 54.64111328 C24.23978046 56.86612582 24.26703065 59.09108607 24.30175781 61.31591797 C24.35054934 64.52324365 24.37303162 67.72986951 24.390625 70.9375 C24.41127014 71.92427734 24.43191528 72.91105469 24.45318604 73.92773438 C24.45526358 80.39416775 23.32313619 84.43460928 20 90 C19.34 90 18.68 90 18 90 C17.505 91.485 17.505 91.485 17 93 C13.39969111 94.88704185 10.06274857 95.34421292 6.04296875 95.6328125 C4.93115234 95.71660156 3.81933594 95.80039063 2.67382812 95.88671875 C1.52333984 95.96535156 0.37285156 96.04398437 -0.8125 96.125 C-1.98232422 96.21136719 -3.15214844 96.29773438 -4.35742188 96.38671875 C-7.23783897 96.59834123 -10.1185853 96.802508 -13 97 C-14.65497356 93.69005287 -14.10084335 90.00877 -14.0625 86.375 C-14.05798828 85.57320313 -14.05347656 84.77140625 -14.04882812 83.9453125 C-14.03703168 81.96350994 -14.01909605 79.98174567 -14 78 C-7.07 77.01 -7.07 77.01 0 76 C0.33 62.47 0.66 48.94 1 35 C-11.13173597 35.03960283 -11.13173597 35.03960283 -23.26342773 35.09008789 C-24.77848236 35.09300707 -26.29353777 35.09555562 -27.80859375 35.09765625 C-28.60237427 35.10277222 -29.39615479 35.10788818 -30.21398926 35.11315918 C-32.14302829 35.11346956 -34.07196912 35.06235893 -36 35 C-37.82116003 33.17883997 -37.1323508 30.69328236 -37.13671875 28.2734375 C-37.13285156 27.52320312 -37.12898438 26.77296875 -37.125 26 C-37.12886719 25.24976562 -37.13273437 24.49953125 -37.13671875 23.7265625 C-37.12661053 18.12661053 -37.12661053 18.12661053 -36 17 C-33.3337397 16.91144839 -30.69352886 16.88475327 -28.02734375 16.90234375 C-27.22970108 16.9037587 -26.43205841 16.90517365 -25.61024475 16.90663147 C-23.05262565 16.91224684 -20.49509282 16.92480188 -17.9375 16.9375 C-16.20768355 16.94251302 -14.47786574 16.94707627 -12.74804688 16.95117188 C-8.49863761 16.96137209 -4.24941584 16.98094432 0 17 C0 11.39 0 5.78 0 0 Z " fill="#2379C6" transform="translate(443,33)"/>
<path d="M0 0 C2.4375 0.8125 2.4375 0.8125 5 2 C5.33 2.99 5.66 3.98 6 5 C6.99 5.33 7.98 5.66 9 6 C11.86200199 10.32650468 11.51424829 15.00657456 11 20 C10.2125521 22.83117107 9.19863212 25.30307774 8 28 C7.34 28 6.68 28 6 28 C5.938125 28.680625 5.87625 29.36125 5.8125 30.0625 C4.26672214 35.65108149 0.99564161 39.45989824 -3.703125 42.76953125 C-8.7596586 46.471956 -13.14800588 50.7644284 -17.61914062 55.140625 C-20.92531374 58.30690844 -23.53456995 60.62416479 -28 62 C-29.35335895 62.97272675 -30.68662604 63.9739266 -32 65 C-36.55555556 68 -36.55555556 68 -40 68 C-40 68.66 -40 69.32 -40 70 C-41.41396902 70.50757862 -42.83131729 71.00574925 -44.25 71.5 C-45.03890625 71.7784375 -45.8278125 72.056875 -46.640625 72.34375 C-49 73 -49 73 -53 73 C-53.495 74.485 -53.495 74.485 -54 76 C-55.73071289 77.08740234 -55.73071289 77.08740234 -57.97265625 78.0859375 C-58.79056641 78.45976563 -59.60847656 78.83359375 -60.45117188 79.21875 C-61.31291016 79.6003125 -62.17464844 79.981875 -63.0625 80.375 C-67.97675695 82.57597995 -72.73968908 84.7405013 -77.2578125 87.6875 C-80.38417248 89.71428694 -83.15765452 90.77646245 -86.8125 91.625 C-93.56602688 93.66736264 -97.23655442 97.63747749 -101.8203125 102.734375 C-102.53960937 103.48203125 -103.25890625 104.2296875 -104 105 C-104.66 105 -105.32 105 -106 105 C-106.495 106.485 -106.495 106.485 -107 108 C-109.0625 108.6875 -109.0625 108.6875 -111 109 C-111 109.66 -111 110.32 -111 111 C-114.11771927 112.60339848 -115.39011689 113.18974141 -118.8125 112.125 C-119.534375 111.75375 -120.25625 111.3825 -121 111 C-121 110.34 -121 109.68 -121 109 C-121.721875 108.7525 -122.44375 108.505 -123.1875 108.25 C-126.27606582 106.87730408 -128.51011418 105.27646704 -131 103 C-131 102.34 -131 101.68 -131 101 C-131.66 101 -132.32 101 -133 101 C-133.495 100.01 -133.495 100.01 -134 99 C-137.46643981 97.9609755 -140.96549126 97.13588128 -144.484375 96.29296875 C-149.58256905 94.41796627 -152.03974876 91.44037686 -155 87 C-155.94395247 78.97640398 -155.29590321 72.84659575 -151 66 C-150.01 66.33 -149.02 66.66 -148 67 C-147.11213747 70.0447407 -146.5970175 73.09401544 -146.0390625 76.21484375 C-145.26622526 79.22775555 -145.26622526 79.22775555 -142.3984375 80.37890625 C-141.60695312 80.58386719 -140.81546875 80.78882812 -140 81 C-140 81.66 -140 82.32 -140 83 C-121.16115658 83.16203848 -105.88954233 82.07293257 -88 76 C-87.01 75.67 -86.02 75.34 -85 75 C-85 74.34 -85 73.68 -85 73 C-84.13375 72.896875 -83.2675 72.79375 -82.375 72.6875 C-78.78367031 71.95593284 -76.25706066 70.6604623 -73 69 C-71.63112158 68.54370719 -70.25534797 68.10782217 -68.875 67.6875 C-63.79805073 66.07879035 -59.20983494 63.67719305 -54.50390625 61.20703125 C-52 60 -52 60 -50 60 C-50 59.01 -50 58.02 -50 57 C-48.865625 56.566875 -47.73125 56.13375 -46.5625 55.6875 C-44.7990625 54.8521875 -44.7990625 54.8521875 -43 54 C-42.67 53.01 -42.34 52.02 -42 51 C-40.02 51 -38.04 51 -36 51 C-36 50.34 -36 49.68 -36 49 C-35.13246094 48.61328125 -34.26492187 48.2265625 -33.37109375 47.828125 C-29.7786953 45.87998772 -26.99287127 43.54665159 -24.0625 40.75 C-23.28036133 40.01910156 -23.28036133 40.01910156 -22.48242188 39.2734375 C-19.03871109 36.03934389 -15.67510844 32.7320296 -12.390625 29.3359375 C-11 28 -11 28 -8.75 26.625 C-6.19494485 24.25244879 -5.64670897 21.45897285 -4.7109375 18.15625 C-4 16 -4 16 -2 13 C-1.57885802 10.32802965 -1.57885802 10.32802965 -1.4375 7.4375 C-1.09618321 2.19236641 -1.09618321 2.19236641 0 0 Z " fill="#F60404" transform="translate(159,38)"/>
<path d="M0 0 C28.05 0 56.1 0 85 0 C85 29.89156627 85 29.89156627 75 41 C74.34 41 73.68 41 73 41 C72.67 41.99 72.34 42.98 72 44 C71.34 44 70.68 44 70 44 C69.78085937 44.57878906 69.56171875 45.15757813 69.3359375 45.75390625 C64.34886423 54.13860546 50.89970617 59.14756188 41.84667969 61.578125 C34.01494142 63.52700649 26.06122717 65.40156829 18 66 C16 64 16 64 15.75708008 62.13647461 C15.76118896 61.39921143 15.76529785 60.66194824 15.76953125 59.90234375 C15.77146484 59.10119141 15.77339844 58.30003906 15.77539062 57.47460938 C15.78763672 56.63736328 15.79988281 55.80011719 15.8125 54.9375 C15.81314453 54.09638672 15.81378906 53.25527344 15.81445312 52.38867188 C15.85976816 46.14023184 15.85976816 46.14023184 17 45 C18.87368695 44.80566043 20.74808224 44.61645625 22.625 44.45629883 C34.41501058 43.4045084 42.05966733 40.00002861 51.1875 32.35546875 C53 31 53 31 55 31 C55.27585937 30.42765625 55.55171875 29.8553125 55.8359375 29.265625 C56.99467848 27.01035733 58.26875706 24.89143622 59.625 22.75 C60.29402344 21.69039062 60.29402344 21.69039062 60.9765625 20.609375 C61.31429687 20.07828125 61.65203125 19.5471875 62 19 C61.23800797 18.98969254 60.47601593 18.97938507 59.69093323 18.96876526 C52.5244026 18.8709559 45.35796173 18.7684656 38.19157505 18.66066074 C34.5068981 18.60539835 30.82221327 18.55197321 27.13745117 18.50268555 C23.58422159 18.45509068 20.03109125 18.40274993 16.47797966 18.34705925 C15.11957189 18.3266135 13.76113688 18.30790415 12.40268135 18.29092598 C10.50610295 18.26693123 8.60961201 18.23629668 6.71313477 18.20532227 C5.63169693 18.18977798 4.55025909 18.1742337 3.43605042 18.15821838 C1 18 1 18 0 17 C0 11.39 0 5.78 0 0 Z " fill="#247AC5" transform="translate(300,64)"/>
<path d="M0 0 C9.57 0 19.14 0 29 0 C30.41697193 2.83394387 30.11945929 5.20873738 30.11352539 8.37744141 C30.11367142 9.03122269 30.11381744 9.68500397 30.1139679 10.3585968 C30.11327036 12.52295227 30.1054854 14.68722204 30.09765625 16.8515625 C30.09579151 18.35086012 30.09436787 19.85015834 30.09336853 21.34945679 C30.08954779 25.29831622 30.07972128 29.24713896 30.06866455 33.19598389 C30.05844091 37.22440087 30.05386887 41.25282378 30.04882812 45.28125 C30.03809862 53.18751685 30.0210275 61.09375386 30 69 C30.66 69 31.32 69 32 69 C32 69.99 32 70.98 32 72 C32.99 72 33.98 72 35 72 C35 72.66 35 73.32 35 74 C36.65 74.33 38.3 74.66 40 75 C40 81.6 40 88.2 40 95 C36.2565625 94.8453125 36.2565625 94.8453125 32.4375 94.6875 C31.66591553 94.66260498 30.89433105 94.63770996 30.09936523 94.61206055 C25.12090517 94.35130522 21.47735784 93.19455253 17 91 C17 90.34 17 89.68 17 89 C16.278125 88.79375 15.55625 88.5875 14.8125 88.375 C11.02781616 86.52471012 9.47741347 84.39759562 7 81 C7 80.34 7 79.68 7 79 C6.34 79 5.68 79 5 79 C1.81603111 70.71417559 1.52797827 62.81436891 1.48828125 54.0234375 C1.47140019 52.60281864 1.45324545 51.18221441 1.43388367 49.7616272 C1.38674865 46.0562599 1.35670504 42.3509519 1.33044434 38.64538574 C1.30045255 34.85071098 1.25398717 31.05623992 1.20898438 27.26171875 C1.12336767 19.84124775 1.05583952 12.42076124 1 5 C0.34 4.67 -0.32 4.34 -1 4 C-0.67 2.68 -0.34 1.36 0 0 Z " fill="#47BA5A" transform="translate(200,34)"/>
<path d="M0 0 C4.09333905 -0.07408587 8.18641933 -0.1285704 12.28027344 -0.16479492 C13.67324622 -0.17989358 15.06617138 -0.20037444 16.45898438 -0.22631836 C18.45942885 -0.26265122 20.46021827 -0.27811192 22.4609375 -0.29296875 C24.26763916 -0.31653442 24.26763916 -0.31653442 26.11083984 -0.34057617 C27.0642627 -0.22818604 28.01768555 -0.1157959 29 0 C31.30462733 3.45694099 31.25696884 4.78163875 31.2746582 8.85742188 C31.28895622 10.665755 31.28895622 10.665755 31.30354309 12.51062012 C31.30263168 13.81680298 31.30172028 15.12298584 31.30078125 16.46875 C31.30467152 17.82816701 31.30900687 19.18758282 31.31376648 20.54699707 C31.32123318 23.40181403 31.32093697 26.25650739 31.31567383 29.11132812 C31.30991872 32.74128701 31.32671066 36.37072905 31.3500185 40.00060272 C31.36488181 42.81305829 31.36560994 45.62539356 31.36250877 48.43788147 C31.3632619 50.41787979 31.37705393 52.39785961 31.39118958 54.37780762 C31.33791445 64.90466147 30.19483602 75.71287864 23 84 C22.34 84 21.68 84 21 84 C21 84.66 21 85.32 21 86 C13.70588235 92.30842607 13.70588235 92.30842607 8 92 C8 92.66 8 93.32 8 94 C3.05 94.33 -1.9 94.66 -7 95 C-7.66 93.68 -8.32 92.36 -9 91 C-8.505 90.505 -8.505 90.505 -8 90 C-7.89827593 86.8766944 -7.80127789 83.7597215 -7.83398438 80.63476562 C-7.76953125 78.63671875 -7.76953125 78.63671875 -7 75 C-5.04330696 73.6038875 -3.03933235 72.27236053 -1 71 C2.69550405 64.72277202 2.43609743 58.60039784 2.3984375 51.4609375 C2.40130768 50.26191803 2.40417786 49.06289856 2.40713501 47.82754517 C2.40917084 45.30104091 2.40367479 42.77452072 2.39111328 40.24804688 C2.3750256 36.38115284 2.39099391 32.51529958 2.41015625 28.6484375 C2.40817429 26.19010186 2.40433158 23.73176687 2.3984375 21.2734375 C2.40451019 20.11814545 2.41058289 18.96285339 2.4168396 17.77255249 C2.40738312 16.69438263 2.39792664 15.61621277 2.38818359 14.50537109 C2.38579681 13.56051849 2.38341003 12.61566589 2.38095093 11.6421814 C1.93025517 8.5162671 0.67367298 6.64398732 -1 4 C-0.6875 1.6875 -0.6875 1.6875 0 0 Z " fill="#46BA59" transform="translate(250,34)"/>
<path d="M0 0 C1.25908676 0.00222061 2.51817352 0.00444122 3.81541443 0.00672913 C4.50806396 0.0065831 5.2007135 0.00643707 5.91435242 0.00628662 C8.21400537 0.00698577 10.51357828 0.01477823 12.81321716 0.02259827 C14.40362504 0.02446244 15.99403349 0.02588635 17.58444214 0.02688599 C21.77827021 0.03071123 25.97206386 0.04054156 30.1658783 0.05158997 C34.44220006 0.06180395 38.71852736 0.06638358 42.99485779 0.07142639 C51.39135799 0.08216383 59.78783017 0.09924032 68.18431091 0.12025452 C70.18431091 5.12025452 70.18431091 5.12025452 69.18431091 18.12025452 C45.09431091 18.12025452 21.00431091 18.12025452 -3.81568909 18.12025452 C-3.81568909 0.16296325 -3.81568909 0.16296325 0 0 Z " fill="#257AC3" transform="translate(309.81568908691406,37.87974548339844)"/>
<path d="M0 0 C2.79192205 -0.05380578 5.5828141 -0.09357669 8.375 -0.125 C9.1690625 -0.14175781 9.963125 -0.15851563 10.78125 -0.17578125 C12.85492015 -0.19335473 14.92883241 -0.10335168 17 0 C17.66 0.66 18.32 1.32 19 2 C18.75 4.8125 18.75 4.8125 18.41015625 6.69140625 C18.09924661 8.44138338 17.84641006 10.20180169 17.62109375 11.96484375 C16.63286578 19.45222861 14.84542255 26.02046715 12 33 C11.64421875 33.92425781 11.2884375 34.84851563 10.921875 35.80078125 C9.49360334 39.48337721 8.19993752 42.70009372 6 46 C2.85264283 45.72345583 -0.29241854 45.4262444 -3.4375 45.125 C-4.33533203 45.04636719 -5.23316406 44.96773437 -6.15820312 44.88671875 C-7.01220703 44.80292969 -7.86621094 44.71914062 -8.74609375 44.6328125 C-9.53685303 44.55949707 -10.3276123 44.48618164 -11.14233398 44.41064453 C-11.75536377 44.27513184 -12.36839355 44.13961914 -13 44 C-14.56482078 40.87035844 -13.00667918 38.18240517 -12 35 C-11.71898437 34.05640625 -11.43796875 33.1128125 -11.1484375 32.140625 C-7.88568049 21.26476831 -4.03230107 10.61131862 0 0 Z " fill="#267AC3" transform="translate(418,73)"/>
<path d="M0 0 C2.59009554 -0.24950462 4.9187129 -0.32719737 7.5 -0.25 C8.18964844 -0.24484375 8.87929688 -0.2396875 9.58984375 -0.234375 C14.69032948 -0.15483526 14.69032948 -0.15483526 17 1 C18.07826885 3.38780985 19.0354513 5.73319348 19.9375 8.1875 C20.33618286 9.26801636 20.33618286 9.26801636 20.74291992 10.37036133 C24.69668775 21.41205517 26.35082897 32.31492153 27 44 C21.06 44 15.12 44 9 44 C3.63840807 32.08535127 -1.56234987 16.1552481 -2 3 C-1.34 2.01 -0.68 1.02 0 0 Z " fill="#257AC4" transform="translate(472,73)"/>
<path d="M0 0 C12.54 0 25.08 0 38 0 C37.34 0.99 36.68 1.98 36 3 C35.34 3 34.68 3 34 3 C34.20625 4.03125 34.4125 5.0625 34.625 6.125 C35 10 35 10 33 16 C22.44 16 11.88 16 1 16 C0.67 10.72 0.34 5.44 0 0 Z " fill="#1F81CA" transform="translate(407,50)"/>
<path d="M0 0 C9.57 0 19.14 0 29 0 C30.41697193 2.83394387 30.11945929 5.20873738 30.11352539 8.37744141 C30.11367142 9.03122269 30.11381744 9.68500397 30.1139679 10.3585968 C30.11327036 12.52295227 30.1054854 14.68722204 30.09765625 16.8515625 C30.09579151 18.35086012 30.09436787 19.85015834 30.09336853 21.34945679 C30.08954779 25.29831622 30.07972128 29.24713896 30.06866455 33.19598389 C30.05844091 37.22440087 30.05386887 41.25282378 30.04882812 45.28125 C30.03809862 53.18751685 30.0210275 61.09375386 30 69 C30.66 69 31.32 69 32 69 C32 69.99 32 70.98 32 72 C32.99 72.33 33.98 72.66 35 73 C33.02 73.495 33.02 73.495 31 74 C27.92566144 69.38849216 27.87519311 65.28173004 27.88647461 59.83276367 C27.88655014 58.61187546 27.88662567 57.39098724 27.88670349 56.13310242 C27.89186478 54.82460831 27.89702606 53.5161142 27.90234375 52.16796875 C27.90421039 50.80748039 27.90563313 49.44699135 27.90663147 48.08650208 C27.91043725 44.51744713 27.92025086 40.94843331 27.93133545 37.37939453 C27.94159137 33.73275305 27.94613803 30.08610489 27.95117188 26.43945312 C27.96187497 19.29295038 27.97945596 12.14648222 28 5 C21.07 4.67 14.14 4.34 7 4 C7.33 5.32 7.66 6.64 8 8 C7.34 8 6.68 8 6 8 C6 30.11 6 52.22 6 75 C5.34 75 4.68 75 4 75 C2.36429553 70.67698308 1.73585701 67.05727436 1.68115234 62.44384766 C1.66128265 61.16297272 1.64141296 59.88209778 1.62094116 58.56240845 C1.60906748 57.17962822 1.59740447 55.79684616 1.5859375 54.4140625 C1.56721021 52.98773091 1.54763565 51.56141021 1.5272522 50.13510132 C1.47608959 46.39681444 1.43637945 42.6584917 1.39910889 38.92004395 C1.35896922 35.09895066 1.30792252 31.27800449 1.2578125 27.45703125 C1.16124138 19.97145537 1.07677703 12.48580786 1 5 C0.34 4.67 -0.32 4.34 -1 4 C-0.67 2.68 -0.34 1.36 0 0 Z " fill="#41B257" transform="translate(200,34)"/>
<path d="M0 0 C1.62490954 -0.02698189 3.24994633 -0.04638757 4.875 -0.0625 C6.23238281 -0.07990234 6.23238281 -0.07990234 7.6171875 -0.09765625 C10 0 10 0 12 1 C12.99799853 3.41403774 13.86976617 5.77583097 14.6875 8.25 C14.92533203 8.91902344 15.16316406 9.58804688 15.40820312 10.27734375 C16.72957726 14.22209116 17.27913349 16.99980072 16 21 C8.25 21.125 8.25 21.125 6 20 C5.67 20.99 5.34 21.98 5 23 C1.04 23 -2.92 23 -7 23 C-8.0582024 20.06752387 -9.09685789 17.13050067 -10.125 14.1875 C-10.42792969 13.35412109 -10.73085938 12.52074219 -11.04296875 11.66210938 C-11.45869141 10.45844727 -11.45869141 10.45844727 -11.8828125 9.23046875 C-12.14465332 8.49207764 -12.40649414 7.75368652 -12.67626953 6.99291992 C-13 5 -13 5 -11 2 C-8.87109375 1.671875 -8.87109375 1.671875 -6.4375 1.75 C-5.63183594 1.76546875 -4.82617188 1.7809375 -3.99609375 1.796875 C-2 2 -2 2 -1 3 C-0.67 2.01 -0.34 1.02 0 0 Z M0 4 C1 7 1 7 1 7 Z M2 9 C3 12 3 12 3 12 Z " fill="#2A7CC4" transform="translate(482,26)"/>
<path d="M0 0 C0 3 0 3 -1.6796875 5.04296875 C-2.40414062 5.75066406 -3.12859375 6.45835937 -3.875 7.1875 C-4.59429687 7.90292969 -5.31359375 8.61835938 -6.0546875 9.35546875 C-8 11 -8 11 -10 11 C-10.33 11.99 -10.66 12.98 -11 14 C-13.0625 14.6875 -13.0625 14.6875 -15 15 C-15 15.66 -15 16.32 -15 17 C-18.11771927 18.60339848 -19.39011689 19.18974141 -22.8125 18.125 C-23.534375 17.75375 -24.25625 17.3825 -25 17 C-25 16.34 -25 15.68 -25 15 C-26.0828125 14.62875 -26.0828125 14.62875 -27.1875 14.25 C-30.27606582 12.87730408 -32.51011418 11.27646704 -35 9 C-35 8.34 -35 7.68 -35 7 C-35.66 7 -36.32 7 -37 7 C-37.33 6.01 -37.66 5.02 -38 4 C-35.3615677 2.68078385 -33.1338985 2.69951429 -30.1875 2.5 C-29.02992187 2.4175 -27.87234375 2.335 -26.6796875 2.25 C-24.2265625 2.08333333 -21.7734375 1.91666667 -19.3203125 1.75 C-18.16273437 1.6675 -17.00515625 1.585 -15.8125 1.5 C-14.74644531 1.4278125 -13.68039063 1.355625 -12.58203125 1.28125 C-0.7137561 -0.0115122 -0.7137561 -0.0115122 0 0 Z " fill="#43B859" transform="translate(63,132)"/>
<path d="M0 0 C0.66 0 1.32 0 2 0 C2.22018611 6.67058196 2.41475896 13.34156877 2.59204102 20.01342773 C2.65523585 22.28019889 2.72416438 24.5468181 2.79907227 26.81323242 C2.90610115 30.08228241 2.99208962 33.35133464 3.07421875 36.62109375 C3.11157639 37.62458359 3.14893402 38.62807343 3.18742371 39.66197205 C3.32150225 46.02121629 2.45012486 51.1198033 0 57 C0.8971875 56.505 0.8971875 56.505 1.8125 56 C4 55 4 55 7 55 C7 54.34 7 53.68 7 53 C8.32 53.33 9.64 53.66 11 54 C9.421924 54.84324672 7.8372958 55.67423918 6.25 56.5 C5.36828125 56.9640625 4.4865625 57.428125 3.578125 57.90625 C1 59 1 59 -3 59 C-2.88269799 52.60947614 -2.75786229 46.21913192 -2.62768555 39.82885742 C-2.58426493 37.65311047 -2.54259529 35.47732786 -2.50268555 33.30151367 C-2.44515498 30.18136832 -2.38141177 27.06140367 -2.31640625 23.94140625 C-2.29969376 22.96224747 -2.28298126 21.98308868 -2.26576233 20.97425842 C-2.2358445 19.62297096 -2.2358445 19.62297096 -2.20532227 18.24438477 C-2.18977798 17.44718521 -2.1742337 16.64998566 -2.15821838 15.82862854 C-2 14 -2 14 -1 13 C-0.76518307 10.81707226 -0.58636677 8.62796826 -0.4375 6.4375 C-0.35371094 5.23996094 -0.26992187 4.04242188 -0.18359375 2.80859375 C-0.12300781 1.88175781 -0.06242187 0.95492187 0 0 Z " fill="#2B73B4" transform="translate(90,48)"/>
<path d="M0 0 C0.53462018 4.44856795 0.77742821 8.57181096 0 13 C-2.52573413 16.03843657 -5.28306818 17.70586952 -9 19 C-11.80078125 19.13671875 -11.80078125 19.13671875 -14 19 C-14.02692484 16.70839681 -14.04636124 14.41670454 -14.0625 12.125 C-14.07410156 10.84882812 -14.08570312 9.57265625 -14.09765625 8.2578125 C-14 5 -14 5 -13 3 C-10.8203125 2.1484375 -10.8203125 2.1484375 -8.125 1.375 C-7.24070312 1.11460938 -6.35640625 0.85421875 -5.4453125 0.5859375 C-3 0 -3 0 0 0 Z " fill="#951419" transform="translate(90,48)"/>
<path d="M0 0 C2.4375 0.8125 2.4375 0.8125 5 2 C5.33 2.99 5.66 3.98 6 5 C6.99 5.33 7.98 5.66 9 6 C11.86200199 10.32650468 11.51424829 15.00657456 11 20 C10.2125521 22.83117107 9.19863212 25.30307774 8 28 C7.67 28 7.34 28 7 28 C7 25.69 7 23.38 7 21 C7.66 21 8.32 21 9 21 C9 17.37 9 13.74 9 10 C8.34 10 7.68 10 7 10 C6.34 8.02 5.68 6.04 5 4 C4.01 4 3.02 4 2 4 C1.95101562 4.81984375 1.90203125 5.6396875 1.8515625 6.484375 C1.77679688 7.56203125 1.70203125 8.6396875 1.625 9.75 C1.55539063 10.81734375 1.48578125 11.8846875 1.4140625 12.984375 C1.0271777 15.80206432 0.44313834 17.5830366 -1 20 C-1.66 20 -2.32 20 -3 20 C-3.0928125 21.051875 -3.0928125 21.051875 -3.1875 22.125 C-4.48125156 26.70289013 -7.22338768 29.97081056 -11.33984375 32.35546875 C-14.46494299 34.28743171 -16.75169216 36.55840395 -19.3125 39.1875 C-20.19550781 40.08855469 -21.07851562 40.98960938 -21.98828125 41.91796875 C-22.65214844 42.60503906 -23.31601563 43.29210937 -24 44 C-24.66 43.67 -25.32 43.34 -26 43 C-23.58749669 40.55834935 -21.16928161 38.12243315 -18.75 35.6875 C-18.06808594 34.99720703 -17.38617188 34.30691406 -16.68359375 33.59570312 C-16.01972656 32.92861328 -15.35585937 32.26152344 -14.671875 31.57421875 C-14.0644043 30.96151123 -13.45693359 30.34880371 -12.83105469 29.7175293 C-11 28 -11 28 -8.83154297 26.41137695 C-6.52493042 24.63391399 -6.14296822 23.27578873 -5.375 20.5 C-4.50945298 17.44512818 -3.80691626 15.71037439 -2 13 C-1.57885802 10.32802965 -1.57885802 10.32802965 -1.4375 7.4375 C-1.09618321 2.19236641 -1.09618321 2.19236641 0 0 Z " fill="#A92B47" transform="translate(159,38)"/>
<path d="M0 0 C0.66 0 1.32 0 2 0 C2 4.95 2 9.9 2 15 C3.41023438 14.83628906 4.82046875 14.67257813 6.2734375 14.50390625 C12.06898174 13.92435183 17.80553416 13.88699729 23.625 13.9375 C25.13126953 13.94426758 25.13126953 13.94426758 26.66796875 13.95117188 C29.11204471 13.96281033 31.5559882 13.9791576 34 14 C34.66 12.68 35.32 11.36 36 10 C36.33 10 36.66 10 37 10 C37 11.98 37 13.96 37 16 C37.66 16 38.32 16 39 16 C39 24.58 39 33.16 39 42 C38.67 42 38.34 42 38 42 C38 33.75 38 25.5 38 17 C35.34066406 17.01160156 32.68132812 17.02320312 29.94140625 17.03515625 C27.37654744 17.04294652 24.81168993 17.04902345 22.24682617 17.05493164 C20.45905979 17.05997218 18.67129755 17.06680454 16.88354492 17.07543945 C14.31948832 17.0875173 11.75548603 17.09323094 9.19140625 17.09765625 C7.98515343 17.10539818 7.98515343 17.10539818 6.75453186 17.11329651 C4.83598285 17.11349215 2.91754632 17.06201983 1 17 C0 16 0 16 -0.09765625 12.40234375 C-0.0909822 10.91403133 -0.07902183 9.42573568 -0.0625 7.9375 C-0.05798828 7.17888672 -0.05347656 6.42027344 -0.04882812 5.63867188 C-0.0370068 3.75908129 -0.01907078 1.87953101 0 0 Z " fill="#367BB7" transform="translate(406,51)"/>
<path d="M0 0 C0.66 0.33 1.32 0.66 2 1 C0.47005208 2.20442708 -1.05989583 3.40885417 -2.58984375 4.61328125 C-4.27155077 6.05683091 -4.27155077 6.05683091 -5 9 C-6.32 9 -7.64 9 -9 9 C-9.20625 9.61875 -9.4125 10.2375 -9.625 10.875 C-11.55310933 13.85480533 -13.6654067 13.95385308 -17 15 C-18.67083819 16.32810215 -20.33729713 17.66172696 -22 19 C-23.11375 19.474375 -24.2275 19.94875 -25.375 20.4375 C-28.28996121 21.6939488 -30.16241711 22.75664907 -32.625 24.625 C-37.83128665 28.46910966 -42.73245198 28.10622963 -49 28 C-46.50847297 25.7251275 -44.17076451 24.65426667 -41 23.6875 C-35.86334516 22.09778652 -31.25486439 19.7008292 -26.50390625 17.20703125 C-24 16 -24 16 -22 16 C-22 15.01 -22 14.02 -22 13 C-20.865625 12.566875 -19.73125 12.13375 -18.5625 11.6875 C-17.386875 11.130625 -16.21125 10.57375 -15 10 C-14.67 9.01 -14.34 8.02 -14 7 C-12.02 7 -10.04 7 -8 7 C-8 6.34 -8 5.68 -8 5 C-7.05125 4.54625 -6.1025 4.0925 -5.125 3.625 C-1.99686321 2.19761746 -1.99686321 2.19761746 0 0 Z " fill="#B4253F" transform="translate(131,82)"/>
<path d="M0 0 C0.33 0 0.66 0 1 0 C1 21.78 1 43.56 1 66 C1.66 66 2.32 66 3 66 C3 66.99 3 67.98 3 69 C3.99 69.33 4.98 69.66 6 70 C4.02 70.495 4.02 70.495 2 71 C-1.08639221 66.37041169 -1.12539144 62.22768755 -1.12939453 56.75683594 C-1.13254669 55.51915466 -1.13569885 54.28147339 -1.13894653 53.00628662 C-1.13715731 51.66564905 -1.1351065 50.3250118 -1.1328125 48.984375 C-1.13348644 47.60386132 -1.13445722 46.22334775 -1.13571167 44.84283447 C-1.13718242 41.95803694 -1.13505281 39.07327047 -1.13037109 36.18847656 C-1.12465271 32.48377916 -1.12797 28.77915388 -1.13394356 25.07445908 C-1.13754776 22.22812348 -1.13641162 19.38180515 -1.13381577 16.53546906 C-1.13314721 15.16866294 -1.13397244 13.80185527 -1.13629532 12.43505096 C-1.13882179 10.53189624 -1.13429141 8.62873604 -1.12939453 6.72558594 C-1.12820114 5.09940338 -1.12820114 5.09940338 -1.12698364 3.44036865 C-1 1 -1 1 0 0 Z " fill="#52A665" transform="translate(229,37)"/>
<path d="M0 0 C28.05 0 56.1 0 85 0 C85 20 85 20 83 23 C83.33 15.74 83.66 8.48 84 1 C57.27 1.33 30.54 1.66 3 2 C2.67 7.28 2.34 12.56 2 18 C1.34 17.67 0.68 17.34 0 17 C0 11.39 0 5.78 0 0 Z " fill="#4181B4" transform="translate(300,64)"/>
<path d="M0 0 C0 3 0 3 -1.75 5.04296875 C-2.4925 5.75066406 -3.235 6.45835937 -4 7.1875 C-4.7425 7.90292969 -5.485 8.61835938 -6.25 9.35546875 C-6.8275 9.89816406 -7.405 10.44085938 -8 11 C-8.66 10.67 -9.32 10.34 -10 10 C-9.67 9.01 -9.34 8.02 -9 7 C-8.34 7 -7.68 7 -7 7 C-7 5.68 -7 4.36 -7 3 C-9.31 3 -11.62 3 -14 3 C-14 3.66 -14 4.32 -14 5 C-19.94 5 -25.88 5 -32 5 C-31.34 7.31 -30.68 9.62 -30 12 C-32.5 10.625 -32.5 10.625 -35 9 C-35 8.34 -35 7.68 -35 7 C-35.66 7 -36.32 7 -37 7 C-37.33 6.01 -37.66 5.02 -38 4 C-35.3615677 2.68078385 -33.1338985 2.69951429 -30.1875 2.5 C-29.02992187 2.4175 -27.87234375 2.335 -26.6796875 2.25 C-24.2265625 2.08333333 -21.7734375 1.91666667 -19.3203125 1.75 C-18.16273437 1.6675 -17.00515625 1.585 -15.8125 1.5 C-14.74644531 1.4278125 -13.68039063 1.355625 -12.58203125 1.28125 C-0.7137561 -0.0115122 -0.7137561 -0.0115122 0 0 Z " fill="#7A8249" transform="translate(63,132)"/>
<path d="M0 0 C0.66 0.33 1.32 0.66 2 1 C2 18.49 2 35.98 2 54 C1.34 53.67 0.68 53.34 0 53 C-1.3909472 46.68791683 -1.15134263 40.2466868 -1.125 33.8125 C-1.12306641 32.67441895 -1.12113281 31.53633789 -1.11914062 30.36376953 C-1.06809706 20.22169652 -0.63966111 10.12035263 0 0 Z " fill="#3CA865" transform="translate(279,44)"/>
<path d="M0 0 C-0.639375 0.103125 -1.27875 0.20625 -1.9375 0.3125 C-2.618125 0.539375 -3.29875 0.76625 -4 1 C-4.33 1.99 -4.66 2.98 -5 4 C-6.95709957 5.08155503 -8.97282088 6.05631317 -11 7 C-12.81389349 8.03923823 -14.62627562 9.0811169 -16.4375 10.125 C-20.76712002 12.51457171 -24.07558855 13.78113727 -29 14 C-29.33 14.99 -29.66 15.98 -30 17 C-30.66 17 -31.32 17 -32 17 C-32.0825 17.53625 -32.165 18.0725 -32.25 18.625 C-33.27293806 21.86430387 -35.00033698 24.27318679 -37 27 C-37.66 27.33 -38.32 27.66 -39 28 C-38.70480469 27.43796875 -38.40960938 26.8759375 -38.10546875 26.296875 C-36.95882144 24.03983291 -36.95882144 24.03983291 -36.23828125 21.703125 C-32.99531819 13.10995707 -26.73115041 10.39965342 -18.81347656 6.8046875 C-17.91580566 6.40636719 -17.91580566 6.40636719 -17 6 C-16.02804688 5.566875 -15.05609375 5.13375 -14.0546875 4.6875 C-12.85199219 4.1615625 -12.85199219 4.1615625 -11.625 3.625 C-7.95602515 2.43974847 -7.95602515 2.43974847 -7 0 C-4.0262656 -1.09036928 -3.11592499 -1.03864166 0 0 Z " fill="#516597" transform="translate(113,111)"/>
<path d="M0 0 C-0.06000106 1.6260287 -0.1487885 3.25101549 -0.25 4.875 C-0.31960937 6.23238281 -0.31960937 6.23238281 -0.390625 7.6171875 C-1 10 -1 10 -3.046875 11.3203125 C-3.69140625 11.54460938 -4.3359375 11.76890625 -5 12 C-5 12.66 -5 13.32 -5 14 C-6.32 14 -7.64 14 -9 14 C-9.10815225 12.23050905 -9.18566083 10.45912513 -9.25 8.6875 C-9.29640625 7.70136719 -9.3428125 6.71523438 -9.390625 5.69921875 C-9 3 -9 3 -7.296875 1.14453125 C-4.65667084 -0.17108069 -2.91242054 -0.24270171 0 0 Z " fill="#E20D07" transform="translate(86,52)"/>
<path d="M0 0 C0.37713653 13.75849934 0.54111829 27.11087703 -5 40 C-5.33 40 -5.66 40 -6 40 C-6 36.7 -6 33.4 -6 30 C-5.34 30 -4.68 30 -4 30 C-4.02320313 29.39671875 -4.04640625 28.7934375 -4.0703125 28.171875 C-4.08835938 27.37265625 -4.10640625 26.5734375 -4.125 25.75 C-4.14820313 24.96109375 -4.17140625 24.1721875 -4.1953125 23.359375 C-4 21 -4 21 -2.96875 19.09375 C-1.61121763 16.15972844 -2.02879908 13.93504844 -2.375 10.75 C-2.48585937 9.67234375 -2.59671875 8.5946875 -2.7109375 7.484375 C-2.80632812 6.66453125 -2.90171875 5.8446875 -3 5 C-4.32 4.67 -5.64 4.34 -7 4 C-2.25 0 -2.25 0 0 0 Z " fill="#357DB0" transform="translate(159,78)"/>
<path d="M0 0 C0.99 0.495 0.99 0.495 2 1 C2.33 1.99 2.66 2.98 3 4 C9.72568684 8.39756447 16.08706313 8.75875192 24 9 C24 8.34 24 7.68 24 7 C36.375 6.01 36.375 6.01 49 5 C40.01391266 10.99072489 28.83104684 10.08619743 18.4375 10.125 C17.09727783 10.13200928 17.09727783 10.13200928 15.72998047 10.13916016 C14.88967285 10.13706543 14.04936523 10.1349707 13.18359375 10.1328125 C12.42618896 10.13168457 11.66878418 10.13055664 10.88842773 10.12939453 C9 10 9 10 7 9 C7 8.34 7 7.68 7 7 C5.02 6.34 3.04 5.68 1 5 C0.67 3.35 0.34 1.7 0 0 Z " fill="#769649" transform="translate(12,112)"/>
<path d="M0 0 C1.11507935 0.1071936 1.11507935 0.1071936 2.25268555 0.21655273 C11.46246896 1.02196036 20.57887497 1.11781617 29.8125 1.0625 C31.29492034 1.05746824 32.77734236 1.05290834 34.25976562 1.04882812 C37.8398795 1.0379707 41.41992843 1.02080135 45 1 C42.39127039 3.60872961 41.00459705 3.37468386 37.36328125 3.6328125 C36.22826172 3.71660156 35.09324219 3.80039063 33.92382812 3.88671875 C32.73208984 3.96535156 31.54035156 4.04398438 30.3125 4.125 C29.14009766 4.21136719 27.96769531 4.29773438 26.75976562 4.38671875 C10.59528583 5.53676079 10.59528583 5.53676079 5.125 3.625 C4.36445313 3.36976563 3.60390625 3.11453125 2.8203125 2.8515625 C1 2 1 2 0 0 Z " fill="#DC1B12" transform="translate(10,131)"/>
<path d="M0 0 C0.33 0 0.66 0 1 0 C1.02698189 1.62490954 1.04638757 3.24994633 1.0625 4.875 C1.07410156 5.77992187 1.08570312 6.68484375 1.09765625 7.6171875 C1 10 1 10 0 12 C-0.23029956 14.37123246 -0.41119942 16.74741943 -0.5625 19.125 C-0.64628906 20.40632813 -0.73007813 21.68765625 -0.81640625 23.0078125 C-0.90728516 24.48894531 -0.90728516 24.48894531 -1 26 C0.32 26.33 1.64 26.66 3 27 C2.34 27 1.68 27 1 27 C1.02320312 27.67546875 1.04640625 28.3509375 1.0703125 29.046875 C1.08835937 29.93890625 1.10640625 30.8309375 1.125 31.75 C1.14820312 32.63171875 1.17140625 33.5134375 1.1953125 34.421875 C0.99139502 37.1135858 0.36551721 38.69904974 -1 41 C-0.93489583 39.046875 -0.86979167 37.09375 -0.8046875 35.140625 C-0.86191868 32.96624667 -0.86191868 32.96624667 -1.99780273 31.14819336 C-3.12578671 28.73037825 -3.24465083 27.14144341 -3.23046875 24.48828125 C-3.22853516 23.64845703 -3.22660156 22.80863281 -3.22460938 21.94335938 C-3.21236328 21.07517578 -3.20011719 20.20699219 -3.1875 19.3125 C-3.18685547 18.43271484 -3.18621094 17.55292969 -3.18554688 16.64648438 C-3.14040057 10.14040057 -3.14040057 10.14040057 -2 9 C-1.79395915 7.67218122 -1.6337041 6.33704105 -1.5 5 C-1.11111111 1.11111111 -1.11111111 1.11111111 0 0 Z " fill="#5FA85E" transform="translate(77,41)"/>
<path d="M0 0 C7.59 0 15.18 0 23 0 C23.33 1.98 23.66 3.96 24 6 C23.67 5.34 23.34 4.68 23 4 C20.31339057 3.09949908 17.70855446 2.8330294 14.890625 2.68359375 C14.13652344 2.64169922 13.38242187 2.59980469 12.60546875 2.55664062 C11.43951172 2.49766602 11.43951172 2.49766602 10.25 2.4375 C9.06083984 2.37272461 9.06083984 2.37272461 7.84765625 2.30664062 C5.89862185 2.20097009 3.94933252 2.10002034 2 2 C2.16298584 2.61133789 2.32597168 3.22267578 2.49389648 3.85253906 C3.05298003 6.22480095 3.09828719 8.31647115 3.0625 10.75 C3.05347656 11.54921875 3.04445313 12.3484375 3.03515625 13.171875 C3.01775391 14.07679687 3.01775391 14.07679687 3 15 C3.66 15.33 4.32 15.66 5 16 C3.68 16.33 2.36 16.66 1 17 C0.67 11.39 0.34 5.78 0 0 Z " fill="#367AAB" transform="translate(443,33)"/>
<path d="M0 0 C-0.33 0.99 -0.66 1.98 -1 3 C-3.3115374 3.48423511 -5.62407371 3.96244112 -7.9375 4.4375 C-9.22527344 4.70433594 -10.51304688 4.97117187 -11.83984375 5.24609375 C-20.76868069 6.93470525 -29.48511233 7.12780495 -38.5625 7.0625 C-39.76197266 7.05798828 -40.96144531 7.05347656 -42.19726562 7.04882812 C-45.13156359 7.03713769 -48.06575449 7.02075138 -51 7 C-51.66 5.35 -52.32 3.7 -53 2 C-52.01 2.33 -51.02 2.66 -50 3 C-50 3.66 -50 4.32 -50 5 C-28.10114706 5.42394635 -28.10114706 5.42394635 -6.84765625 0.83984375 C-4 0 -4 0 0 0 Z " fill="#AE4D26" transform="translate(69,116)"/>
<path d="M0 0 C2 1 2 1 5 3 C4.83923477 3.5332489 4.67846954 4.0664978 4.51283264 4.61590576 C3.89229714 7.50069702 3.83667532 10.19367774 3.79467773 13.14550781 C3.77473251 14.38649231 3.75478729 15.62747681 3.73423767 16.90606689 C3.71725607 18.255085 3.70037717 19.60410441 3.68359375 20.953125 C3.66301124 22.33746951 3.64201443 23.72180792 3.62062073 25.10614014 C3.56553393 28.742544 3.51606586 32.37900333 3.46777344 36.01550293 C3.41746036 39.72913525 3.36182558 43.44268744 3.30664062 47.15625 C3.19922296 54.43743206 3.09774192 61.71868094 3 69 C2.67 69 2.34 69 2 69 C1.505 37.32 1.505 37.32 1 5 C0.34 4.67 -0.32 4.34 -1 4 C-0.67 2.68 -0.34 1.36 0 0 Z " fill="#5BA66E" transform="translate(200,34)"/>
<path d="M0 0 C1.98 0.99 1.98 0.99 4 2 C4 22.13 4 42.26 4 63 C2.02 63.99 2.02 63.99 0 65 C0.16233124 64.12687164 0.32466248 63.25374329 0.49191284 62.35415649 C0.9576016 59.27989466 1.12679987 56.43720589 1.12939453 53.33349609 C1.13254669 52.24571869 1.13569885 51.15794128 1.13894653 50.03720093 C1.1369223 48.877659 1.13489807 47.71811707 1.1328125 46.5234375 C1.13376923 45.32063141 1.13472595 44.11782532 1.13571167 42.87857056 C1.13639084 40.34189807 1.13455489 37.80522382 1.13037109 35.26855469 C1.12500982 31.38212192 1.13032983 27.49580423 1.13671875 23.609375 C1.13605811 21.14322891 1.13477723 18.67708289 1.1328125 16.2109375 C1.13483673 15.04734711 1.13686096 13.88375671 1.13894653 12.68490601 C1.13579437 11.60343292 1.13264221 10.52195984 1.12939453 9.40771484 C1.12859894 8.45762543 1.12780334 7.50753601 1.12698364 6.52865601 C1.01023361 4.20378445 0.65855229 2.22503978 0 0 Z " fill="#51AC67" transform="translate(251,39)"/>
<path d="M0 0 C0.66 0 1.32 0 2 0 C2.33 0.66 2.66 1.32 3 2 C3.99 2.33 4.98 2.66 6 3 C6.33 2.34 6.66 1.68 7 1 C8.65 1.33 10.3 1.66 12 2 C12 2.99 12 3.98 12 5 C11.34 5 10.68 5 10 5 C10 5.66 10 6.32 10 7 C13.3 6.34 16.6 5.68 20 5 C18.02 5.99 18.02 5.99 16 7 C16 7.66 16 8.32 16 9 C12.88228073 10.60339848 11.60988311 11.18974141 8.1875 10.125 C7.465625 9.75375 6.74375 9.3825 6 9 C6 8.34 6 7.68 6 7 C5.195625 6.773125 4.39125 6.54625 3.5625 6.3125 C2.716875 5.879375 1.87125 5.44625 1 5 C0.1875 2.375 0.1875 2.375 0 0 Z " fill="#4FB162" transform="translate(32,140)"/>
<path d="M0 0 C8.58 0 17.16 0 26 0 C26 0.99 26 1.98 26 3 C17.09 3 8.18 3 -1 3 C-0.67 2.01 -0.34 1.02 0 0 Z " fill="#4BB264" transform="translate(202,34)"/>
<path d="M0 0 C4.09333905 -0.07408587 8.18641933 -0.1285704 12.28027344 -0.16479492 C13.67324622 -0.17989358 15.06617138 -0.20037444 16.45898438 -0.22631836 C18.45942885 -0.26265122 20.46021827 -0.27811192 22.4609375 -0.29296875 C24.26763916 -0.31653442 24.26763916 -0.31653442 26.11083984 -0.34057617 C27.0642627 -0.22818604 28.01768555 -0.1157959 29 0 C31.29013653 3.4352048 31.17842973 4.985331 31 9 C30.34 9 29.68 9 29 9 C29 7.02 29 5.04 29 3 C17.615 2.505 17.615 2.505 6 2 C6 2.33 6 2.66 6 3 C3.69 3.33 1.38 3.66 -1 4 C-0.67 2.68 -0.34 1.36 0 0 Z " fill="#52AB66" transform="translate(250,34)"/>
<path d="M0 0 C-2.18881469 2.18881469 -4.2383116 2.92769389 -7.06640625 4.07421875 C-9.13073952 5.0625965 -10.80427491 6.24252384 -12.625 7.625 C-17.83128665 11.46910966 -22.73245198 11.10622963 -29 11 C-26.50847297 8.7251275 -24.17076451 7.65426667 -21 6.6875 C-15.88741278 5.11896163 -11.37565098 2.67682799 -6.69921875 0.109375 C-3.83628658 -1.06728598 -2.81161701 -1.14868913 0 0 Z " fill="#C32130" transform="translate(111,99)"/>
<path d="M0 0 C-0.66 0.99 -1.32 1.98 -2 3 C-4.70214844 3.44824219 -4.70214844 3.44824219 -8.109375 3.546875 C-9.33914063 3.58683594 -10.56890625 3.62679687 -11.8359375 3.66796875 C-13.77339844 3.70857422 -13.77339844 3.70857422 -15.75 3.75 C-17.02617187 3.79253906 -18.30234375 3.83507813 -19.6171875 3.87890625 C-25.2472126 4.03758128 -30.45155185 4.07531315 -36 3 C-35.67 2.34 -35.34 1.68 -35 1 C-30.81912796 0.85650316 -26.63821982 0.71412224 -22.45727539 0.57275391 C-21.03636663 0.52455461 -19.615468 0.47605585 -18.19458008 0.42724609 C-16.14667335 0.35695017 -14.09873206 0.28774811 -12.05078125 0.21875 C-10.20480347 0.1559082 -10.20480347 0.1559082 -8.3215332 0.09179688 C-5.54496654 0.01506118 -2.77729118 -0.01843845 0 0 Z " fill="#3283C8" transform="translate(445,50)"/>
<path d="M0 0 C0.99 0.33 1.98 0.66 3 1 C3.33 3.31 3.66 5.62 4 8 C3.34 7.67 2.68 7.34 2 7 C2 6.01 2 5.02 2 4 C1.34 4 0.68 4 0 4 C-0.66 9.28 -1.32 14.56 -2 20 C-1.34 20 -0.68 20 0 20 C0.66 22.31 1.32 24.62 2 27 C-1 26 -1 26 -2.66015625 23.83203125 C-5.31168075 18.22749695 -5.10079504 11.20231283 -3.09765625 5.375 C-2 3.1875 -2 3.1875 0 0 Z " fill="#EB2224" transform="translate(8,104)"/>
<path d="M0 0 C0.66 0.33 1.32 0.66 2 1 C-12.05010616 15.38641189 -12.05010616 15.38641189 -20 19 C-21.34789347 19.98028616 -22.68212715 20.97971135 -24 22 C-28.55555556 25 -28.55555556 25 -32 25 C-32 25.66 -32 26.32 -32 27 C-32.66 26.67 -33.32 26.34 -34 26 C-32.25819268 22.51638535 -28.61459326 21.28681019 -25.1875 19.6875 C-21.10150991 17.52432877 -17.62587209 14.8534592 -14 12 C-13.1440625 11.33097656 -12.288125 10.66195312 -11.40625 9.97265625 C-7.3975126 6.80693274 -3.55901162 3.67329181 0 0 Z " fill="#A62D4C" transform="translate(151,81)"/>
<path d="M0 0 C1.21816406 0.03480469 1.21816406 0.03480469 2.4609375 0.0703125 C3.68683594 0.09738281 3.68683594 0.09738281 4.9375 0.125 C5.87722656 0.15980469 5.87722656 0.15980469 6.8359375 0.1953125 C6.8359375 1.8453125 6.8359375 3.4953125 6.8359375 5.1953125 C3.8659375 4.7003125 3.8659375 4.7003125 0.8359375 4.1953125 C1.8259375 4.8553125 2.8159375 5.5153125 3.8359375 6.1953125 C2.8459375 9.4953125 1.8559375 12.7953125 0.8359375 16.1953125 C-1.17399955 13.18040693 -1.89029591 10.9803198 -2.7890625 7.5078125 C-3.04945313 6.51394531 -3.30984375 5.52007812 -3.578125 4.49609375 C-3.77148438 3.73683594 -3.96484375 2.97757813 -4.1640625 2.1953125 C-2.1640625 0.1953125 -2.1640625 0.1953125 0 0 Z " fill="#2B7BBE" transform="translate(473.1640625,27.8046875)"/>
<path d="M0 0 C0.33 0 0.66 0 1 0 C1.02493457 5.4951953 1.04296987 10.99035682 1.05493164 16.4855957 C1.0599245 18.3505104 1.06672112 20.21542126 1.07543945 22.08032227 C1.18263054 45.61822484 1.18263054 45.61822484 0 51 C-0.66 51.66 -1.32 52.32 -2 53 C-2 48.05 -2 43.1 -2 38 C-1.34 38 -0.68 38 0 38 C0 25.46 0 12.92 0 0 Z " fill="#4872A5" transform="translate(158,0)"/>
<path d="M0 0 C2.4375 0.8125 2.4375 0.8125 5 2 C5.33 2.99 5.66 3.98 6 5 C6.99 5.33 7.98 5.66 9 6 C11.86200199 10.32650468 11.51424829 15.00657456 11 20 C10.2125521 22.83117107 9.19863212 25.30307774 8 28 C7.67 28 7.34 28 7 28 C7 25.69 7 23.38 7 21 C7.66 21 8.32 21 9 21 C9 17.37 9 13.74 9 10 C8.34 10 7.68 10 7 10 C6.7525 9.030625 6.505 8.06125 6.25 7.0625 C5.63125 5.5465625 5.63125 5.5465625 5 4 C2.98491642 3.26676204 2.98491642 3.26676204 1 3 C0.67 2.01 0.34 1.02 0 0 Z " fill="#D8282C" transform="translate(159,38)"/>
<path d="M0 0 C2.06723714 3.10085571 2.24497423 3.72931681 2.1953125 7.23046875 C2.18886719 8.03291016 2.18242187 8.83535156 2.17578125 9.66210938 C2.15902344 10.49548828 2.14226563 11.32886719 2.125 12.1875 C2.11597656 13.03248047 2.10695313 13.87746094 2.09765625 14.74804688 C2.07410703 16.83215243 2.03823647 18.91611217 2 21 C2.66 21.33 3.32 21.66 4 22 C5.1577506 25.47325181 5.06866652 28.36067448 5 32 C4.67 32 4.34 32 4 32 C3.87625 31.195625 3.7525 30.39125 3.625 29.5625 C3.41875 28.716875 3.2125 27.87125 3 27 C2.34 26.67 1.68 26.34 1 26 C-0.0918453 22.9350804 -0.11643436 20.02671013 -0.09765625 16.796875 C-0.09443359 15.8171875 -0.09121094 14.8375 -0.08789062 13.828125 C-0.07951172 12.81234375 -0.07113281 11.7965625 -0.0625 10.75 C-0.05798828 9.71875 -0.05347656 8.6875 -0.04882812 7.625 C-0.03706088 5.08327427 -0.02062011 2.54166681 0 0 Z " fill="#5AB471" transform="translate(7,78)"/>
<path d="M0 0 C1.65322266 0.01740234 1.65322266 0.01740234 3.33984375 0.03515625 C4.99693359 0.04869141 4.99693359 0.04869141 6.6875 0.0625 C7.54214844 0.07410156 8.39679688 0.08570312 9.27734375 0.09765625 C9.27734375 0.42765625 9.27734375 0.75765625 9.27734375 1.09765625 C8.32021484 1.18853516 8.32021484 1.18853516 7.34375 1.28125 C6.51746094 1.36503906 5.69117188 1.44882813 4.83984375 1.53515625 C3.60427734 1.65697266 3.60427734 1.65697266 2.34375 1.78125 C0.2907235 1.8869644 0.2907235 1.8869644 -0.72265625 3.09765625 C-0.80897499 4.44033038 -0.82972098 5.78739947 -0.8203125 7.1328125 C-0.81708984 7.94169922 -0.81386719 8.75058594 -0.81054688 9.58398438 C-0.80216797 10.43412109 -0.79378906 11.28425781 -0.78515625 12.16015625 C-0.78064453 13.01416016 -0.77613281 13.86816406 -0.77148438 14.74804688 C-0.75965998 16.86461288 -0.74172394 18.9811431 -0.72265625 21.09765625 C-1.71265625 20.43765625 -2.70265625 19.77765625 -3.72265625 19.09765625 C-4.07910156 17.23413086 -4.07910156 17.23413086 -4.05078125 15 C-4.045625 14.19884766 -4.04046875 13.39769531 -4.03515625 12.57226562 C-4.01453125 11.73501953 -3.99390625 10.89777344 -3.97265625 10.03515625 C-3.9675 9.19404297 -3.96234375 8.35292969 -3.95703125 7.48632812 C-3.86229739 0.1385329 -3.86229739 0.1385329 0 0 Z " fill="#3B76AA" transform="translate(319.72265625,108.90234375)"/>
<path d="M0 0 C2.62527189 -0.05382106 5.24944713 -0.09358313 7.875 -0.125 C8.62136719 -0.14175781 9.36773437 -0.15851563 10.13671875 -0.17578125 C12.09194461 -0.1933959 14.04742021 -0.10320189 16 0 C18 2 18 2 18 5 C17.34 5 16.68 5 16 5 C15.67 4.34 15.34 3.68 15 3 C10.05 3 5.1 3 0 3 C0 2.01 0 1.02 0 0 Z " fill="#3F7DBA" transform="translate(419,73)"/>
<path d="M0 0 C0.70125 0.144375 1.4025 0.28875 2.125 0.4375 C2.455 2.4175 2.785 4.3975 3.125 6.4375 C2.135 6.4375 1.145 6.4375 0.125 6.4375 C-1.43906528 6.58877402 -3.00159252 6.75652522 -4.5625 6.9375 C-5.37074219 7.0303125 -6.17898437 7.123125 -7.01171875 7.21875 C-7.93404297 7.32703125 -7.93404297 7.32703125 -8.875 7.4375 C-3.7809081 0.57535558 -3.7809081 0.57535558 0 0 Z " fill="#2277BD" transform="translate(153.875,82.5625)"/>
<path d="M0 0 C-0.639375 0.103125 -1.27875 0.20625 -1.9375 0.3125 C-2.618125 0.539375 -3.29875 0.76625 -4 1 C-4.33 1.99 -4.66 2.98 -5 4 C-7.36328125 5.1328125 -7.36328125 5.1328125 -10.3125 6.125 C-11.27800781 6.45757812 -12.24351563 6.79015625 -13.23828125 7.1328125 C-15.4835119 7.83782127 -17.70918878 8.46674703 -20 9 C-20 9.66 -20 10.32 -20 11 C-22.64 11.66 -25.28 12.32 -28 13 C-26.68373931 10.36747863 -25.44301501 10.10699691 -22.78125 8.90625 C-21.93175781 8.51566406 -21.08226563 8.12507813 -20.20703125 7.72265625 C-18.40234375 6.90755208 -16.59765625 6.09244792 -14.79296875 5.27734375 C-13.94347656 4.88675781 -13.09398438 4.49617188 -12.21875 4.09375 C-11.43435547 3.73990234 -10.64996094 3.38605469 -9.84179688 3.02148438 C-7.83106971 2.13320482 -7.83106971 2.13320482 -7 0 C-4.0262656 -1.09036928 -3.11592499 -1.03864166 0 0 Z " fill="#A03252" transform="translate(113,111)"/>
<path d="M0 0 C0.99 0 1.98 0 3 0 C4.06825721 11.5812647 4.06825721 11.5812647 1.51171875 14.9765625 C-0.88752224 16.67540394 -2.99634395 18 -6 18 C-6 17.34 -6 16.68 -6 16 C-3.5 13.5 -3.5 13.5 -1 11 C-0.08307039 8.24921116 0.10886083 6.64051087 0.0625 3.8125 C0.041875 2.554375 0.02125 1.29625 0 0 Z " fill="#5D2747" transform="translate(87,48)"/>
<path d="M0 0 C2.0625 0.4375 2.0625 0.4375 4 1 C0.39690759 3.32672019 -3.04257365 4.82558109 -7.125 6.125 C-8.15882812 6.45757812 -9.19265625 6.79015625 -10.2578125 7.1328125 C-11.16273437 7.41898438 -12.06765625 7.70515625 -13 8 C-13.99 8.33 -14.98 8.66 -16 9 C-18.00875442 8.72428861 -20.01178687 8.39764263 -22 8 C-19.53880414 5.53880414 -18.27156575 5.55921226 -14.875 5.0625 C-6.84978449 3.89716862 -6.84978449 3.89716862 0 0 Z " fill="#D22F32" transform="translate(79,124)"/>
<path d="M0 0 C2.97 0 5.94 0 9 0 C9.66 1.65 10.32 3.3 11 5 C10.67 5.33 10.34 5.66 10 6 C9.76924918 7.34747084 9.58846937 8.70377565 9.4375 10.0625 C9.293125 11.361875 9.14875 12.66125 9 14 C8.67 14 8.34 14 8 14 C7.896875 12.906875 7.79375 11.81375 7.6875 10.6875 C7.02692273 7.14440371 6.7972908 6.06756277 4 4 C4.33 3.67 4.66 3.34 5 3 C2.03 2.505 2.03 2.505 -1 2 C-0.67 1.34 -0.34 0.68 0 0 Z " fill="#5EB06B" transform="translate(67,36)"/>
<path d="M0 0 C0 0.66 0 1.32 0 2 C-5.94 2 -11.88 2 -18 2 C-17.34 4.31 -16.68 6.62 -16 9 C-18.5 7.625 -18.5 7.625 -21 6 C-21 5.34 -21 4.68 -21 4 C-21.66 4 -22.32 4 -23 4 C-23 3.34 -23 2.68 -23 2 C-19.36174115 0.78724705 -15.8584969 0.64480153 -12.0625 0.4375 C-10.98838867 0.37272461 -10.98838867 0.37272461 -9.89257812 0.30664062 C-6.58657755 0.11361186 -3.31288896 0 0 0 Z " fill="#669852" transform="translate(49,135)"/>
<path d="M0 0 C0.33 0 0.66 0 1 0 C0.67 2.31 0.34 4.62 0 7 C-3.57644848 8.2380014 -6.33694766 7.74926071 -10 7 C-9.67 6.34 -9.34 5.68 -9 5 C-6.9375 4.375 -6.9375 4.375 -5 4 C-5.99 3.34 -6.98 2.68 -8 2 C-6.2984375 1.7834375 -6.2984375 1.7834375 -4.5625 1.5625 C-1.19222799 1.38828522 -1.19222799 1.38828522 0 0 Z " fill="#2F82C2" transform="translate(425,111)"/>
<path d="M0 0 C1.9451 2.91765 2.45276317 4.62537285 3 8 C3.66 8 4.32 8 5 8 C5 9.65 5 11.3 5 13 C10.28 13 15.56 13 21 13 C21.33 12.01 21.66 11.02 22 10 C22 11.32 22 12.64 22 14 C16.06 14 10.12 14 4 14 C0 4.5 0 4.5 0 0 Z " fill="#407AAB" transform="translate(477,103)"/>
<path d="M0 0 C0.33 0 0.66 0 1 0 C2.125 7.625 2.125 7.625 1 11 C-4.28 11 -9.56 11 -15 11 C-15 10.67 -15 10.34 -15 10 C-10.71 10 -6.42 10 -2 10 C-2.04125 8.906875 -2.0825 7.81375 -2.125 6.6875 C-2 3 -2 3 0 0 Z " fill="#2B76BB" transform="translate(497,105)"/>
<path d="M0 0 C0.66 0.33 1.32 0.66 2 1 C2.59355614 3.64860427 2.74209269 6.29197322 3 9 C1.68 9 0.36 9 -1 9 C-1.33 8.01 -1.66 7.02 -2 6 C-5.00847418 4.77479736 -5.00847418 4.77479736 -8 4 C-7.34 3.34 -6.68 2.68 -6 2 C-3.375 2.375 -3.375 2.375 -1 3 C-0.67 2.01 -0.34 1.02 0 0 Z " fill="#247ECB" transform="translate(480,29)"/>
<path d="M0 0 C-0.33 0.99 -0.66 1.98 -1 3 C-3.41474617 3.53160457 -5.83108107 4.05054766 -8.25 4.5625 C-8.93191406 4.71396484 -9.61382812 4.86542969 -10.31640625 5.02148438 C-13.81769038 5.75233495 -16.60298173 6.32203546 -20 5 C-17.41877492 4.15960114 -14.83536099 3.32749444 -12.25 2.5 C-11.15558594 2.14228516 -11.15558594 2.14228516 -10.0390625 1.77734375 C-9.33007812 1.55175781 -8.62109375 1.32617188 -7.890625 1.09375 C-7.24125977 0.88427734 -6.59189453 0.67480469 -5.92285156 0.45898438 C-4 0 -4 0 0 0 Z " fill="#BF3416" transform="translate(69,116)"/>
<path d="M0 0 C1.98 0.99 1.98 0.99 4 2 C3.85930804 4.12534659 3.71229079 6.25027529 3.5625 8.375 C3.48128906 9.55835938 3.40007812 10.74171875 3.31640625 11.9609375 C3 15 3 15 2 17 C1.34 17 0.68 17 0 17 C0 11.39 0 5.78 0 0 Z " fill="#1F71BC" transform="translate(307,38)"/>
<path d="M0 0 C1.65 0 3.3 0 5 0 C5.66 2.31 6.32 4.62 7 7 C4.69 7.66 2.38 8.32 0 9 C0.375 7.0625 0.375 7.0625 1 5 C1.66 4.67 2.32 4.34 3 4 C2.01 3.67 1.02 3.34 0 3 C0 2.01 0 1.02 0 0 Z " fill="#2D83C4" transform="translate(469,50)"/>
<path d="M0 0 C0.33 0 0.66 0 1 0 C1.08160748 1.89510699 1.13946459 3.79124504 1.1875 5.6875 C1.22230469 6.74324219 1.25710938 7.79898438 1.29296875 8.88671875 C0.96409165 12.38158604 0.12293836 14.22938553 -2 17 C-2.66 17 -3.32 17 -4 17 C-4 17.66 -4 18.32 -4 19 C-4.66 19 -5.32 19 -6 19 C-6 18.01 -6 17.02 -6 16 C-5.53980469 15.58105469 -5.07960938 15.16210938 -4.60546875 14.73046875 C-2.2611988 12.20367656 -2.0069526 9.65248632 -1.3125 6.3125 C-1.06113281 5.13300781 -0.80976563 3.95351562 -0.55078125 2.73828125 C-0.36902344 1.83464844 -0.18726563 0.93101563 0 0 Z " fill="#307CBE" transform="translate(465,106)"/>
<path d="M0 0 C0.33 0 0.66 0 1 0 C1 1.98 1 3.96 1 6 C0.34 6 -0.32 6 -1 6 C-1 6.66 -1 7.32 -1 8 C-4.82942948 10.90108294 -8.27536912 11.53680089 -13 12 C-13 11.34 -13 10.68 -13 10 C-11.02 10 -9.04 10 -7 10 C-7 9.34 -7 8.68 -7 8 C-6.01 8 -5.02 8 -4 8 C-3.67 6.68 -3.34 5.36 -3 4 C-2.34 4 -1.68 4 -1 4 C-0.67 2.68 -0.34 1.36 0 0 Z " fill="#699B56" transform="translate(75,105)"/>
<path d="M0 0 C-0.33 2.97 -0.66 5.94 -1 9 C-2.32 9.33 -3.64 9.66 -5 10 C-5.29296875 3.9453125 -5.29296875 3.9453125 -5 2 C-2 0 -2 0 0 0 Z " fill="#F30301" transform="translate(83,55)"/>
<path d="M0 0 C0.66 0 1.32 0 2 0 C2.66 2.64 3.32 5.28 4 8 C4.33 8 4.66 8 5 8 C5 12.29 5 16.58 5 21 C4.67 21 4.34 21 4 21 C3.33178624 17.68781012 2.66568819 14.37519832 2 11.0625 C1.80921875 10.11697266 1.6184375 9.17144531 1.421875 8.19726562 C1.24140625 7.29814453 1.0609375 6.39902344 0.875 5.47265625 C0.70742188 4.64000244 0.53984375 3.80734863 0.3671875 2.94946289 C0 1 0 1 0 0 Z " fill="#377FB4" transform="translate(471,79)"/>
<path d="M0 0 C0.33 0.66 0.66 1.32 1 2 C1.84304688 1.72349609 1.84304688 1.72349609 2.703125 1.44140625 C5.38260374 0.92647241 7.11546311 1.27886578 9.75 1.9375 C10.54921875 2.13214844 11.3484375 2.32679687 12.171875 2.52734375 C13.07679688 2.76130859 13.07679688 2.76130859 14 3 C13.67 3.66 13.34 4.32 13 5 C9.04 5 5.08 5 1 5 C0.67 3.35 0.34 1.7 0 0 Z " fill="#3F7AAE" transform="translate(474,44)"/>
<path d="M0 0 C1.98 0 3.96 0 6 0 C5.278125 0.556875 4.55625 1.11375 3.8125 1.6875 C0.9298039 3.9538973 0.9298039 3.9538973 -1.5625 6.75 C-4 9 -4 9 -8 9 C-8 8.01 -8 7.02 -8 6 C-6.865625 5.566875 -5.73125 5.13375 -4.5625 4.6875 C-2.7990625 3.8521875 -2.7990625 3.8521875 -1 3 C-0.67 2.01 -0.34 1.02 0 0 Z " fill="#774B7B" transform="translate(117,89)"/>
<path d="M0 0 C0.33 0 0.66 0 1 0 C1 6.27 1 12.54 1 19 C0.34 18.67 -0.32 18.34 -1 18 C-1.4140625 15.49609375 -1.4140625 15.49609375 -1.625 12.4375 C-1.69976562 11.42558594 -1.77453125 10.41367188 -1.8515625 9.37109375 C-1.90054687 8.58863281 -1.94953125 7.80617188 -2 7 C-1.34 7 -0.68 7 0 7 C0 4.69 0 2.38 0 0 Z " fill="#4FA865" transform="translate(280,79)"/>
<path d="M0 0 C0 0.33 0 0.66 0 1 C-1.65 1 -3.3 1 -5 1 C-5 1.66 -5 2.32 -5 3 C-5.99 3 -6.98 3 -8 3 C-8.33 7.29 -8.66 11.58 -9 16 C-9.33 16 -9.66 16 -10 16 C-10.13489391 13.73078464 -10.23193995 11.4592933 -10.3125 9.1875 C-10.37050781 7.92292969 -10.42851562 6.65835938 -10.48828125 5.35546875 C-10 2 -10 2 -7.65625 0.03125 C-4.59479031 -1.1573167 -3.09169582 -0.97167583 0 0 Z " fill="#5CB470" transform="translate(17,57)"/>
<path d="M0 0 C0.66 0.33 1.32 0.66 2 1 C-1.34880315 5.53073367 -3.33512923 7.67417918 -9 9 C-9.78375 9.20625 -10.5675 9.4125 -11.375 9.625 C-11.91125 9.74875 -12.4475 9.8725 -13 10 C-13 9.34 -13 8.68 -13 8 C-12.22914062 7.59007813 -11.45828125 7.18015625 -10.6640625 6.7578125 C-9.66117187 6.21898438 -8.65828125 5.68015625 -7.625 5.125 C-6.62726563 4.59132813 -5.62953125 4.05765625 -4.6015625 3.5078125 C-1.94651605 2.1179862 -1.94651605 2.1179862 0 0 Z " fill="#51649C" transform="translate(132,98)"/>
<path d="M0 0 C1.32 0.33 2.64 0.66 4 1 C2.421924 1.84324672 0.8372958 2.67423918 -0.75 3.5 C-2.07257813 4.19609375 -2.07257813 4.19609375 -3.421875 4.90625 C-6 6 -6 6 -10 6 C-10 4.35 -10 2.7 -10 1 C-9.01 1 -8.02 1 -7 1 C-7 1.99 -7 2.98 -7 4 C-6.1028125 3.505 -6.1028125 3.505 -5.1875 3 C-3 2 -3 2 0 2 C0 1.34 0 0.68 0 0 Z " fill="#42669B" transform="translate(97,101)"/>
<path d="M0 0 C0.66 0 1.32 0 2 0 C3.3442623 5.37704918 3.3442623 5.37704918 1.6875 8.375 C0 10 0 10 -2 10 C-2.625 6.625 -2.625 6.625 -3 3 C-2 2 -1 1 0 0 Z " fill="#2378C5" transform="translate(488,32)"/>
<path d="M0 0 C0.8353125 0.556875 0.8353125 0.556875 1.6875 1.125 C0.48046875 2.64453125 0.48046875 2.64453125 -1.3125 4.125 C-3.57421875 4.19921875 -3.57421875 4.19921875 -6 3.8125 C-6.80824219 3.69261719 -7.61648437 3.57273437 -8.44921875 3.44921875 C-9.06410156 3.34222656 -9.67898437 3.23523438 -10.3125 3.125 C-3.58836207 -1.35775862 -3.58836207 -1.35775862 0 0 Z " fill="#2B73B5" transform="translate(113.3125,7.875)"/>
<path d="M0 0 C4.0927776 -0.18603535 6.41143221 0.15134386 10 2 C12.32495277 2.38749213 14.65851268 2.72982839 17 3 C17 3.33 17 3.66 17 4 C5.47835991 4.55353075 5.47835991 4.55353075 0 1 C0 0.67 0 0.34 0 0 Z " fill="#56B869" transform="translate(218,124)"/>
<path d="M0 0 C1.65 0 3.3 0 5 0 C4.0409375 0.6496875 4.0409375 0.6496875 3.0625 1.3125 C-0.1101168 5.44651583 0.17530972 9.91601822 0 15 C1.98 15.495 1.98 15.495 4 16 C2.35 16 0.7 16 -1 16 C-1.02692484 13.70839681 -1.04636124 11.41670454 -1.0625 9.125 C-1.07410156 7.84882812 -1.08570312 6.57265625 -1.09765625 5.2578125 C-1 2 -1 2 0 0 Z " fill="#BB4428" transform="translate(77,51)"/>
<path d="M0 0 C0.33 0 0.66 0 1 0 C1 4.62 1 9.24 1 14 C0.34 14 -0.32 14 -1 14 C-1.22226864 12.23086176 -1.42733873 10.45955629 -1.625 8.6875 C-1.74101563 7.70136719 -1.85703125 6.71523437 -1.9765625 5.69921875 C-2 3 -2 3 0 0 Z " fill="#5AA468" transform="translate(76,86)"/>
<path d="M0 0 C2.31 0 4.62 0 7 0 C6.67 0.66 6.34 1.32 6 2 C5.01 2 4.02 2 3 2 C3 2.66 3 3.32 3 4 C0.36 4.33 -2.28 4.66 -5 5 C-3.625 3.5 -3.625 3.5 -2 2 C-1.34 2 -0.68 2 0 2 C0 1.34 0 0.68 0 0 Z " fill="#CD3B26" transform="translate(74,111)"/>
<path d="M0 0 C-0.33 1.32 -0.66 2.64 -1 4 C-5.455 4.495 -5.455 4.495 -10 5 C-8.68 4.34 -7.36 3.68 -6 3 C-6 2.34 -6 1.68 -6 1 C-4 0 -4 0 0 0 Z " fill="#556195" transform="translate(119,108)"/>
<path d="M0 0 C0.66 0.33 1.32 0.66 2 1 C-0.63886654 5.2026393 -3.36440339 8.56638098 -7 12 C-7 10.68 -7 9.36 -7 8 C-6.01 7.34 -5.02 6.68 -4 6 C-3.67 5.01 -3.34 4.02 -3 3 C-1.4375 1.3125 -1.4375 1.3125 0 0 Z " fill="#3C7FAC" transform="translate(148,124)"/>
<path d="M0 0 C-2.70269923 2.70269923 -5.4252738 3.70570258 -9 5 C-11.2265625 4.58203125 -11.2265625 4.58203125 -13 4 C-11.59248779 3.13083113 -10.1735479 2.28014851 -8.75 1.4375 C-7.96109375 0.96183594 -7.1721875 0.48617187 -6.359375 -0.00390625 C-3.69155375 -1.13022151 -2.65498232 -1.0169313 0 0 Z " fill="#B2273F" transform="translate(111,99)"/>
<path d="M0 0 C0.99 0.33 1.98 0.66 3 1 C0.36 3.64 -2.28 6.28 -5 9 C-5.66 7.68 -6.32 6.36 -7 5 C-5.68 5 -4.36 5 -3 5 C-3 4.01 -3 3.02 -3 2 C-2.01 2 -1.02 2 0 2 C0 1.34 0 0.68 0 0 Z " fill="#3871B7" transform="translate(138,73)"/>
<path d="M0 0 C0.33 0 0.66 0 1 0 C1 4.29 1 8.58 1 13 C2.98 13.495 2.98 13.495 5 14 C4.34 14 3.68 14 3 14 C3 15.65 3 17.3 3 19 C0.43238452 16.38521048 0.0043655 15.05471424 -0.29296875 11.328125 C-0.27316751 9.96843965 -0.23759202 8.6089066 -0.1875 7.25 C-0.17396484 6.55261719 -0.16042969 5.85523438 -0.14648438 5.13671875 C-0.1112945 3.42414459 -0.05749155 1.71197059 0 0 Z " fill="#867A45" transform="translate(75,54)"/>
<path d="M0 0 C2.01822917 0.06510417 4.03645833 0.13020833 6.0546875 0.1953125 C6.0546875 1.1853125 6.0546875 2.1753125 6.0546875 3.1953125 C2.54533564 3.1953125 -0.51016248 2.81988523 -3.9453125 2.1953125 C-1.9453125 0.1953125 -1.9453125 0.1953125 0 0 Z " fill="#7D6D3D" transform="translate(56.9453125,131.8046875)"/>
<path d="M0 0 C0.33 0 0.66 0 1 0 C1.08121924 1.60332791 1.13929134 3.20784026 1.1875 4.8125 C1.23970703 6.15248047 1.23970703 6.15248047 1.29296875 7.51953125 C0.95081002 10.41647515 0.24606427 11.22555028 -2 13 C-1.85966889 11.02043559 -1.7125877 9.04134859 -1.5625 7.0625 C-1.48128906 5.96035156 -1.40007812 4.85820313 -1.31640625 3.72265625 C-1 1 -1 1 0 0 Z " fill="#719765" transform="translate(77,41)"/>
<path d="M0 0 C0 0.66 0 1.32 0 2 C-4.07369424 4.03684712 -6.58937864 4.0257259 -11 3 C-7.88866897 -0.11133103 -4.26881718 0 0 0 Z " fill="#D32A1B" transform="translate(68,129)"/>
<path d="M0 0 C0.33 0.66 0.66 1.32 1 2 C0.67 2.66 0.34 3.32 0 4 C-0.66 4 -1.32 4 -2 4 C-2 4.66 -2 5.32 -2 6 C-2.99 6.495 -2.99 6.495 -4 7 C-4.66 7.99 -5.32 8.98 -6 10 C-6.33 8.35 -6.66 6.7 -7 5 C-6.030625 4.360625 -5.06125 3.72125 -4.0625 3.0625 C-1.23963731 1.3034741 -1.23963731 1.3034741 0 0 Z " fill="#54B469" transform="translate(250,104)"/>
<path d="M0 0 C0.33 0 0.66 0 1 0 C1 1.65 1 3.3 1 5 C1.66 5 2.32 5 3 5 C3 6.65 3 8.3 3 10 C2.01 9.67 1.02 9.34 0 9 C0 8.01 0 7.02 0 6 C-0.66 6 -1.32 6 -2 6 C-2 5.01 -2 4.02 -2 3 C-1.34 3 -0.68 3 0 3 C0 2.01 0 1.02 0 0 Z " fill="#328CD0" transform="translate(485,37)"/>
<path d="M0 0 C0.66 0 1.32 0 2 0 C3.4783226 2.95664519 3.06032783 5.74229737 3 9 C2.34 9 1.68 9 1 9 C-0.4783226 6.04335481 -0.06032783 3.25770263 0 0 Z " fill="#1E65DA" transform="translate(464,37)"/>
<path d="M0 0 C0 0.66 0 1.32 0 2 C-0.9590625 2.2165625 -0.9590625 2.2165625 -1.9375 2.4375 C-3.97545146 2.81007181 -3.97545146 2.81007181 -5 4 C-7.33297433 4.04092937 -9.66705225 4.04241723 -12 4 C-7.87571444 0.61219401 -5.3248712 0 0 0 Z " fill="#58B668" transform="translate(66,38)"/>
<path d="M0 0 C2.31 0 4.62 0 7 0 C7 1.65 7 3.3 7 5 C6.05125 4.835 5.1025 4.67 4.125 4.5 C1.19831099 3.9473365 1.19831099 3.9473365 -1 4 C-0.67 2.68 -0.34 1.36 0 0 Z " fill="#2675B5" transform="translate(473,28)"/>
<path d="M0 0 C0.66 0 1.32 0 2 0 C2.66 3.3 3.32 6.6 4 10 C3.01 9.67 2.02 9.34 1 9 C1 7.35 1 5.7 1 4 C0.34 3.67 -0.32 3.34 -1 3 C-0.67 2.01 -0.34 1.02 0 0 Z " fill="#367BBA" transform="translate(492,87)"/>
<path d="M0 0 C-0.99 0 -1.98 0 -3 0 C-2.67 0.99 -2.34 1.98 -2 3 C-5.3 3 -8.6 3 -12 3 C-4.82142857 -1.78571429 -4.82142857 -1.78571429 0 0 Z " fill="#5DB069" transform="translate(35,50)"/>
<path d="M0 0 C3 1 3 1 3 1 Z M-4 1 C-1.03 1.495 -1.03 1.495 2 2 C1.01 2.33 0.02 2.66 -1 3 C-1 3.66 -1 4.32 -1 5 C-0.34 5.33 0.32 5.66 1 6 C-0.65 5.67 -2.3 5.34 -4 5 C-4 3.68 -4 2.36 -4 1 Z " fill="#1D68C7" transform="translate(77,157)"/>
<path d="M0 0 C0 0.66 0 1.32 0 2 C-3.50776784 3.60355101 -6.14354879 4.22036864 -10 4 C-7.93026888 -0.13946223 -4.25879356 -0.23659964 0 0 Z " fill="#217ECF" transform="translate(125,148)"/>
<path d="M0 0 C0 3.57575896 -1.08840607 5.05295935 -3 8 C-5 7 -5 7 -6 5 C-5.34 5 -4.68 5 -4 5 C-3.67 4.01 -3.34 3.02 -3 2 C-2.01 1.34 -1.02 0.68 0 0 Z " fill="#2D73AA" transform="translate(76,137)"/>
<path d="M0 0 C0.66 0 1.32 0 2 0 C2 0.99 2 1.98 2 3 C-1.37362154 5.60250805 -3.76907828 6.36265043 -8 6 C-7.01 5.67 -6.02 5.34 -5 5 C-5 4.34 -5 3.68 -5 3 C-3.35 2.67 -1.7 2.34 0 2 C0 1.34 0 0.68 0 0 Z " fill="#4FAE6B" transform="translate(266,120)"/>
<path d="M0 0 C0.99 0.33 1.98 0.66 3 1 C4.1577506 4.47325181 4.06866652 7.36067448 4 11 C3.67 11 3.34 11 3 11 C2.87625 10.195625 2.7525 9.39125 2.625 8.5625 C2.315625 7.2940625 2.315625 7.2940625 2 6 C1.34 5.67 0.68 5.34 0 5 C0 3.35 0 1.7 0 0 Z " fill="#69A458" transform="translate(8,99)"/>
<path d="M0 0 C1.33332095 2.6666419 0.67102033 4.16680303 0 7 C-1.98 7 -3.96 7 -6 7 C-4.02 4.69 -2.04 2.38 0 0 Z " fill="#416AA8" transform="translate(151,83)"/>
<path d="M0 0 C-1.32 0.33 -2.64 0.66 -4 1 C-4 1.66 -4 2.32 -4 3 C-5.65 2.67 -7.3 2.34 -9 2 C-8 0 -8 0 -6.1875 -0.6875 C-3.81180233 -1.02688538 -2.26664171 -0.72856341 0 0 Z " fill="#5DB46F" transform="translate(44,47)"/>
<path d="M0 0 C2.475 0.495 2.475 0.495 5 1 C4.67 2.32 4.34 3.64 4 5 C2.68 4.67 1.36 4.34 0 4 C0 2.68 0 1.36 0 0 Z " fill="#3476B7" transform="translate(482,26)"/>
<path d="M0 0 C0.99 0.33 1.98 0.66 3 1 C3.33 3.31 3.66 5.62 4 8 C3.34 7.67 2.68 7.34 2 7 C2 6.01 2 5.02 2 4 C1.01 4 0.02 4 -1 4 C-0.67 2.68 -0.34 1.36 0 0 Z " fill="#AF4829" transform="translate(8,104)"/>
<path d="M0 0 C0 0.99 0 1.98 0 3 C-0.66 3 -1.32 3 -2 3 C-2 3.66 -2 4.32 -2 5 C-3.65 5 -5.3 5 -7 5 C-2.25 0 -2.25 0 0 0 Z " fill="#47669D" transform="translate(159,78)"/>
<path d="M0 0 C0.99 0 1.98 0 3 0 C2.9129995 1.62600941 2.8048219 3.25089678 2.6875 4.875 C2.62949219 5.77992187 2.57148437 6.68484375 2.51171875 7.6171875 C2 10 2 10 -1 12 C-0.11223998 8.30099992 0.94581864 4.65449539 2 1 C1.34 0.67 0.68 0.34 0 0 Z " fill="#B70103" transform="translate(83,52)"/>
<path d="M0 0 C0.66 0 1.32 0 2 0 C1.50168276 3.68754757 0.89932357 5.60490662 -2 8 C-1.125 1.125 -1.125 1.125 0 0 Z " fill="#E22B26" transform="translate(6,108)"/>
<path d="M0 0 C2 1 2 1 2.75 2.75 C3.07158914 5.64430225 2.22746624 7.40065973 1 10 C0.67 10 0.34 10 0 10 C0 6.7 0 3.4 0 0 Z " fill="#3A7AA7" transform="translate(153,108)"/>
<path d="M0 0 C0.66 0.33 1.32 0.66 2 1 C0.35 2.98 -1.3 4.96 -3 7 C-3.99 6.67 -4.98 6.34 -6 6 C-4 4 -2 2 0 0 Z " fill="#3E7EB4" transform="translate(353,95)"/>
<path d="M0 0 C0.99 0.33 1.98 0.66 3 1 C0.63707344 3.52588702 -0.66462511 4.88820837 -4 6 C-3.6875 4.125 -3.6875 4.125 -3 2 C-2.01 1.34 -1.02 0.68 0 0 Z " fill="#A72E46" transform="translate(157,75)"/>
<path d="M0 0 C0 0.33 0 0.66 0 1 C-2.64 1.66 -5.28 2.32 -8 3 C-8 2.01 -8 1.02 -8 0 C-4.71023192 -1.09658936 -3.28696233 -0.79953138 0 0 Z " fill="#56B468" transform="translate(53,44)"/>
<path d="M0 0 C0.33 0.66 0.66 1.32 1 2 C0.67 2.99 0.34 3.98 0 5 C2.475 5.99 2.475 5.99 5 7 C1.25 8.125 1.25 8.125 -1 7 C-1.04254356 5.00045254 -1.04080783 2.99958364 -1 1 C-0.67 0.67 -0.34 0.34 0 0 Z " fill="#447AA7" transform="translate(60,152)"/>
<path d="M0 0 C0 0.66 0 1.32 0 2 C-3.21451269 3.60725635 -6.43612536 3.05748185 -10 3 C-10 2.67 -10 2.34 -10 2 C-6.38026598 0.68373308 -3.90432869 0 0 0 Z " fill="#3977B3" transform="translate(339,106)"/>
<path d="M0 0 C1.32 0.33 2.64 0.66 4 1 C3.34 1 2.68 1 2 1 C1.67 1.99 1.34 2.98 1 4 C0.34 4 -0.32 4 -1 4 C-1.33 4.99 -1.66 5.98 -2 7 C-2.33 6.01 -2.66 5.02 -3 4 C-1.5625 1.8125 -1.5625 1.8125 0 0 Z " fill="#367CB9" transform="translate(371,104)"/>
<path d="M0 0 C0.66 0 1.32 0 2 0 C2 2.31 2 4.62 2 7 C1.01 7.495 1.01 7.495 0 8 C-1.125 2.25 -1.125 2.25 0 0 Z " fill="#3884BE" transform="translate(157,81)"/>
<path d="M0 0 C0.66 0.33 1.32 0.66 2 1 C1.67 3.64 1.34 6.28 1 9 C-1.3773161 6.6226839 -1.67028521 5.29714793 -2 2 C-1.34 1.34 -0.68 0.68 0 0 Z " fill="#387BA8" transform="translate(471,28)"/>
</svg>
